<?xml version="1.0" encoding="UTF-8"?>
<svg id="Layer_1" xmlns="http://www.w3.org/2000/svg" version="1.1" viewBox="0 0 1751.4 1676.3">
  <!-- Generator: Adobe Illustrator 30.2.1, SVG Export Plug-In . SVG Version: 2.1.1 Build 1)  -->
  <defs>
    <style>
      .st0 {
        fill: #c4c4c4;
      }

      .st1 {
        fill: #fff;
      }
    </style>
  </defs>
  <path class="st1" d="M1202.6,691c6.5-8.6,11-18.1,12.8-29-11.7,18.9-29.1,29.6-49.6,36,3.6-8.4,7.2-16.7,10.7-25-.5-.3-1-.5-1.4-.8-1.4,1.6-2.8,3.2-4.2,4.9-10.6,13.3-25.1,19.5-41,23.3-1.3.3-2.7,0-4,0-41.7,0-83.5,0-125.2,0-9.5,0-19,.3-28.4.9-14.7,1-29.4,2.1-44,3.6-10.5,1.1-21,3-31.5,5.1,26.2,4.9,52.6,7.9,79.7,8.4-2.4,9.4-4.6,18.5-7,27.6-1,3.9-3.4,5.6-7.8,5.4-6.8-.4-13.7-.1-20.6-.1-2.4-7.3-4.8-14.3-7.2-21.4-.3,0-.6,0-.8,0-1.1,4-1.7,8.1-3.3,11.9-1.4,3.3,0,8.7-6.1,9.9,0-3.3.2-6,0-8.6,0-1.1-1-2.2-1.6-3.2-.6,1.1-1.7,2.2-1.8,3.4-.3,2.5,0,5,0,8.1-5.4,0-10.6,0-15.8,0s-14.3,0-21.5,0c-2.7,0-4.2-.6-5-3.5-1.5-6-3.6-11.9-5.9-19.1-2.6,8.3-4.7,15.3-7,22.6-15.1,0-30.3,0-45.5-.1-1.1,0-2.7-1.6-3.1-2.8-2.2-6-4.1-12.1-7-18.3-2.1,5.8-4.6,11.5-6.3,17.5-.9,3.1-2.2,3.9-5.2,3.8-4.2-.2-8.3-.2-12.5,0-3,.1-4.8-1.4-5.7-3.9-3.1-8.9-6-17.9-9-27.2,25.1-.9,49.7-3.8,73.8-9.7,0-.5,0-1,0-1.6-11.9-2-23.8-4.1-35.8-5.9-27.9-4.4-56.1-3.5-84.2-3.6-39.6-.2-79.2-.2-118.8-1.2-7-.2-14.3-3.9-20.8-7.3-8.2-4.4-15.2-10.5-20.5-18.6.4,8.5,4.3,15.6,8.8,23.3-10.3-3.2-19.4-7.6-27.5-13.5-8.2-5.9-15.3-13.1-20.4-22.1,1.4,10.5,5.9,19.7,11.2,29.2-7.5-3-15.2-5.7-22.5-9-20.2-9.2-38-21.8-52.7-38.4-15.7-17.7-26.5-38-30.5-61.6-1.1-6.6-1.8-13.5-1.8-20.2-.2-43.5-.2-87.1,0-130.6,0-28.2,9.4-53.3,26.6-75.6,16.7-21.7,38.4-36.8,63.4-47.4,15.2-6.5,30.9-11.4,47.4-13.1,10.4-1.1,20.8-2.6,31.2-2.6,134.7-.2,269.5,0,404.2-.2,48.8,0,97.7-1.1,146.5-.6,28.7.3,56.6,6,82.8,18.5,14.8,7,28.3,15.6,40.6,26.5,13,11.4,23.3,24.8,31,40.1,7.4,14.7,12.5,30.3,12.6,47,.4,48.8,1.3,97.7.6,146.5-.3,19.6-7.2,38.2-18.1,54.7-6.6,10-14.2,19.6-22.6,28-15.2,15.1-33.3,26.1-53.3,33.9-6.1,2.4-12.3,4.4-18.4,6.6-.2-.3-.5-.6-.7-.8h0ZM1084,411.2c.3-.2.7-.5,1-.7-2.1-4.1-4-8.3-6.4-12.2-9.3-14.7-21.7-26-38-32.2-8.5-3.2-17.6-5.1-26.5-7-12.3-2.7-24.8-3.3-37.3-.6-19.9,4.4-35.4,15.5-48.1,31.1-16.5,20.1-24,43.6-25.7,69.1-.7,10.1,0,20.5,1.8,30.4,5.1,27.3,16.9,51,39.1,68.7,13.4,10.7,28.5,17,45.8,17.5,8.9.2,17.5-1.6,26.3-2.4,17.5-1.5,33.5-6.3,47.8-16.5,5-3.6,9.3-8.1,14-12.1l-1-1.4c-8.5,3.4-17,6.9-25.6,10.3,43.3-45.4,43-117.4,10-162.4,7.6,6.8,15.2,13.6,22.8,20.4h0ZM792.6,553.3c46-47,43.3-130.7.9-174.3,8,4,15.9,8,23.9,12,.4-.5.7-1,1.1-1.5-4.6-4.6-8.9-9.6-13.8-13.8-10.9-9.3-23.8-14.6-37.9-16.8-5.5-.9-11.2-.8-16.8-1-7.7-.3-15.5-1.6-23-.6-16.3,2.2-30.5,9.8-42.5,21-12.8,11.9-21.7,26.5-27.5,42.9-5.9,16.5-8.7,33.6-7.2,51.2.6,6.9.5,13.9,2,20.6,6.1,27,18,50.6,40.9,67.5,12.4,9.1,26.2,15,41.8,14.7,9.4-.2,18.7-1.9,28.1-2.5,14.2-.9,26.4-6.7,37.6-15.1,2.9-2.2,5.1-5.2,7.6-7.9-.3-.3-.6-.7-1-1-2.1.8-4.3,1.6-6.4,2.3-2.2.7-4.4,1.3-7.7,2.3ZM841.2,652.5c0,10.6,2.3,12.8,10.1,10.3,6-1.9,11.9-4.6,17.5-7.7,2.4-1.4,3.8-1.3,6-.2,6.1,2.9,12.3,5.9,18.7,8,5.7,1.9,9.5-1.2,9.3-7.2,0-2.9-.4-5.9-1.2-8.7-4.3-15.9-14.5-27.5-27.8-36.6-.9-.6-3.2-.5-4,.2-5.6,4.7-11.4,9.2-16.3,14.6-7.5,8.3-11.9,18.3-12.4,27.2h0ZM1289.7,380c-12.8-44.4-69.7-71-99.1-66.8,37.6,16.3,71.6,36.7,99.1,66.8ZM1271.4,382.1c-7.2-30.1-45.8-49.5-69.7-40.9,26,9.8,48.8,23.7,69.7,40.9ZM485.3,344.3c18.4-6,44.7-20,48.6-25.6-17.7-5.7-45.7,8.5-48.6,25.6ZM1055.4,359.6c-14.2-21.3-51.3-33.2-76.7-22.3,27.6.3,53,8.1,76.7,22.3ZM856.3,352.6c3.7,4,6.6,8.1,10.4,11.2,5.5,4.3,6.3,3.9,11.3-1.1.9-.9,2-1.8,2.8-2.9,3.1-4.3,5.8-8.7,4.9-14.5-1.9.1-3.4,0-4.8.4-6.7,2.3-12.8,6.4-20.4,5.3-.9-.1-2,.8-4.2,1.7h0ZM731.3,329.9c-9.2-5.6-29.3,0-33.1,9.4,11.6-1.6,22.7-3.5,33.1-9.4ZM673.8,354.8c-15.4,8.6-23.5,16.5-19.4,23.8,10.1-5,13-15.9,19.4-23.8h0ZM826.7,729.7c-3.2,5.7-3.3,13-.3,16.6,4.3-5.5.6-10.7.3-16.6ZM823.9,535.5c-.3-.4-.7-.7-1-1.1-3.4,3-6.7,6.1-10.1,9.1,6.2.9,9.1-1.7,11.1-8h0ZM1093,528.3c-2.7,2.8-5.4,5.5-8.8,8.9,5.7.4,9.4-3.1,8.8-8.9ZM1092.8,427.8c1.1-5.6-.5-9.2-4.6-10.5-.6,4.4.7,7.9,4.6,10.5ZM825.1,392.2l-1.7.9c-.3,4.1,1.5,6.6,6.9,6.5-1.7-2.5-3.4-4.9-5.2-7.4Z"/>
  <path class="st1" d="M1364.6,76.9c-8.4-3.5-17-7.1-25.6-10.7l-.6,1c9,6.7,18,13.4,28,20.8-7.3.7-14,1.4-20.7,2,0,.2,0,.5,0,.7,6.2.5,12.5,1.8,18.7,1.4,11.1-.6,21.4,2.9,31.9,5.3,15,3.4,28.1,10.5,39.7,20.4,6.1,5.2,10.1,12,5.6,23-7.7,18.6-16,36.9-24.4,55.2-2.3,5.1-9,6.8-15.5,4.7-16.6-5.4-33.5-10.2-49.7-16.5-11.4-4.5-21.9-3.5-33.1-.3-26.5,7.6-52.6,16.1-78,26.7-20.6,8.6-40.8,18.2-59.5,30.5-4.5,3-9,5.9-13.3,9.1,21.4-9.6,42.7-19.2,64.1-28.8.2.4.5.8.7,1.3-1.8,1.5-3.6,3.2-5.6,4.6-18,12.5-36.1,24.8-54,37.3-2.5,1.7-4.5,2.2-7.6,1.6-5.3-1.1-10.9-1.1-16.3-1.1-23.2-.1-46.5,0-69.7,0h-5.6c62.5-45.6,123.9-90.3,185.3-135,.3.2.5.4.8.6-2.1,4-4.3,8-6.4,12.1.4.3.8.5,1.2.8,4.2-6.1,8.9-11.8,12.6-18.2,13.8-24,22.1-50.1,28-76.9,2.6-12.1,9.1-19.7,20.5-23.1,3.7-1.1,7.9-.7,11.8-.8,4.6-.1,9.3.2,13.9,0,6.4-.4,10.1,2.8,13.5,7.9,4.4,6.7,5.9,13.7,6.1,21.6.2,7.7,2.3,15.4,3.5,23.3h0Z"/>
  <path class="st1" d="M511.2,221.1c21,9.4,42.1,18.7,63.1,28.1.1-.2.3-.4.4-.6-8.4-5.2-16.6-10.6-25.2-15.5-31.5-17.7-65-31-99.5-41.6-13.5-4.2-27.1-7.9-40.8-11.4-2.5-.6-5.5.3-8.1,1.1-19.5,6.3-39,12.9-58.5,19.3-8.1,2.7-14.1.4-17.5-7.2-7.9-17.4-15.7-34.8-23.1-52.5-4.9-11.8.3-18.4,8.2-25.3,16.2-14.1,36.4-18.4,56.4-23.2,4.8-1.2,10.1.1,15.2-.3,6.8-.5,13.6-1.5,20.2-3.2-4.1.2-8.1.6-12.2.5-3.9-.2-7.8-1-12.2-1.7,9.3-6.9,17.8-13.2,26.3-19.6l-.8-1.3c-8,3.4-15.9,6.7-24.2,10.2.9-5.4,1.8-10.5,2.6-15.6.7-4.9,1.5-9.9,1.6-14.9.3-8.1,4.6-14.1,9.6-19.6,1.6-1.8,5-2.6,7.6-2.7,7.3-.4,14.6-.1,21.9-.1,12.1,0,23,9,25.3,20.9,3.7,19.1,9.7,37.5,16.8,55.5,4.9,12.6,11,24.5,19,35.4,2,2.8,4.3,5.4,7.3,7.6-2.3-4.3-4.6-8.5-6.8-12.8.3-.2.6-.5.9-.7,61.4,44.7,122.7,89.4,185.1,134.8h-5.6c-24.7,0-49.5,0-74.2,0-3.5,0-7,.6-10.6.8-4.1.2-7.7-.3-11.5-3.1-12.4-9.2-25.4-17.6-38.1-26.4-6.5-4.5-12.9-9.1-19.3-13.6.2-.5.4-1,.6-1.5h0Z"/>
  <path class="st1" d="M1393.8,887.3c2.9-7.8,5.7-15.7,8.6-23.5-.1-.1-.3-.2-.4-.3-2.4,3.8-4.9,7.5-7,11.5-2.2,4.1-3.8,8.5-6.2,13.9-.8-3.9-1.6-6.9-1.9-9.8-.3-3.1,0-6.3,0-9.4,0-3.3,0-6.5-.3-9.8-2.5,9.9-4.6,19.9-2.5,30.2,1.8,8.7,4.2,17.3,5.2,26.1.5,5-1.1,10.4-2.2,15.5-1.7,8.5-6.4,15.7-11.8,22.2-2.5,3-6.4,5.1-9.8,7.3-1,.6-2.9.5-4,0-8.2-4.4-16.4-4.2-24.7-.2-8.5,4.1-16.7,2.7-24.7-1.6-2.3-1.2-4.7-2.3-7.1-3.5,1.7-17,.4-33.5-9.6-47.8-6.8-9.7-14.7-18.7-22.1-27.9-8.4-10.5-16.8-21.1-25.4-31.5-7.6-9.3-15.4-18.5-23.1-27.8-8.7-10.5-17.3-21.1-26.2-31.5-6.6-7.6-13.5-14.9-21.1-21.7,4.5,6.4,8.9,12.9,13.4,19.3-.2.2-.5.5-.7.7-20.7-14.5-41.3-29-62.4-43.8,21.5-2.3,42.9-3.3,59.5-19.2,11.8,8.6,23.4,17.4,35.4,25.8,4,2.8,8.6,4.8,13.3,6.4,30,10.3,60.1,20.5,90.2,30.5,30.7,10.2,61.4,20.3,92.1,30.3,9.2,3,14.6,10.3,20.3,17.4,2.5,3.1,4.7,6.4,7,9.5,5.9,7.9,4.2,14.3-4.5,19-14.8,7.9-29.6,16-44.4,24-.4.2-.8.3-1.2.4-.5-.2-1-.4-1.5-.6h0Z"/>
  <path class="st1" d="M348.7,887.8c-15.8-8.4-31.7-16.9-47.6-25.2-5.8-3-8.8-9.5-5.3-14.5,6.8-9.7,12.6-20.7,23.1-26.8,7.6-4.5,16.6-6.8,25.2-9.7,48.6-16.2,97.3-32.1,145.9-48.5,10.4-3.5,21.1-7.2,30.5-12.6,10.8-6.2,20.5-14.5,31-22.1,8.6,7.3,19.3,10.5,30.4,12.3,11,1.8,22.1,2.5,33.3,3.7-20.4,14.3-40.9,28.7-61.4,43.1-.3-.3-.6-.5-.9-.8,4.2-6.1,8.4-12.2,12.7-18.3l-.6-.6c-3.2,3.3-6.6,6.4-9.6,9.8-7,8-13.8,16-20.6,24.2-6.8,8.1-13.4,16.3-20.2,24.4-7.5,9.1-15,18.1-22.5,27.2-8.3,10.1-16.6,20.2-24.7,30.4-6.9,8.7-13.8,17.4-20.3,26.4-5.2,7.2-7.6,15.8-8.3,24.6-.5,5.9,0,12-.2,17.9,0,1.3-.9,3.1-2,3.8-9,5.6-18.4,9.7-29.1,4.4-8.7-4.2-17.2-3.8-26,.2-1.9.9-5.9-.6-7.7-2.3-12.8-11.4-19.8-25.7-18.9-43.1.3-5.6,2.8-11,3.9-16.5,2.5-13.5,2.5-26.9-1.8-40.2,1.2,9.9.9,19.7-1.9,30.1-2.2-5.2-3.9-9.8-6.2-14.1-2.2-4.2-5-8.2-7.9-12.1,3.1,8.3,6.2,16.6,9.3,24.9h-1.4s0,0,0,0Z"/>
  <path class="st1" d="M1339.4,479.1c5.7-.5,10.9-.9,17.4-1.4-5.7-3.2-10.5-5.8-15.4-8.5,4.5-5.1,9-10.3,13.4-15.4-.2-.2-.4-.5-.6-.7-4.7,1.7-9.4,3.3-14.2,5-2.4-10.2-1.2-13.3,9.4-18.7,7.3-3.7,15.2-6.1,22.8-9.2.2.5.5.9.7,1.4-2.4,2.9-4.7,5.8-7.3,8.6-3.4,3.6-4.7,7.7-3.6,12.5,1.3,5.3,4.8,7.8,10,9.1,8.8,2.3,17.4,5.3,26.1,7.9,0,.4,0,.8,0,1.2-8.1,2.6-16.1,5.5-24.4,7.7-12.9,3.4-16.2,13.3-7.4,23.2,1.9,2.2,3.8,4.4,5.6,6.7-.2.4-.4.8-.5,1.3-5.5-1.8-11.3-3-16.5-5.4-5-2.3-9.5-5.7-14.1-8.8-.9-.6-1.5-2.1-1.6-3.2-.2-4.3,0-8.6,0-13.2h0Z"/>
  <path class="st1" d="M345.8,469.7c7.7-2.4,15.3-4.7,23-7.2,2.7-.9,5.7-1.6,8-3.1,6.6-4.3,6.2-14.6.3-20.5-2.2-2.2-4.2-4.8-6.5-7.6,11.8,1.9,22.3,5.5,31,13.1,1,.8,2,2.1,2.1,3.3.3,3.5.1,7.1.1,10.7-6,.5-11.6.9-17.3,1.4,0,.3-.2.5-.3.8,4.8,2.5,9.7,5,14.7,7.6-4.8,5.3-9.5,10.6-14.3,15.8.2.2.3.4.5.6,5.4-1.9,10.8-3.8,16.7-5.8,0,4.7.6,9.2-.2,13.4-.5,2.4-3,4.7-5.2,6.3-8,5.9-17,9.3-27.7,10.5,2.8-3.3,5-6.1,7.4-8.8,4.3-4.9,5.3-13,.9-17.3-2.9-2.8-7.6-4-11.6-5.4-7.1-2.4-14.3-4.5-21.5-6.7,0-.5,0-1,0-1.4h0Z"/>
  <path d="M1084,411.2c-7.6-6.8-15.2-13.6-22.8-20.4,33,45,33.2,117-10,162.4,8.5-3.4,17-6.9,25.6-10.3l1,1.4c-4.6,4.1-9,8.6-14,12.1-14.2,10.2-30.2,15-47.8,16.5-8.7.7-17.4,2.6-26.3,2.4-17.3-.5-32.4-6.8-45.8-17.5-22.2-17.7-34-41.4-39.1-68.7-1.8-9.9-2.5-20.4-1.8-30.4,1.7-25.4,9.2-48.9,25.7-69.1,12.8-15.6,28.3-26.7,48.1-31.1,12.4-2.8,24.9-2.2,37.3.6,8.9,2,18,3.8,26.5,7,16.3,6.2,28.7,17.5,38,32.2,2.4,3.9,4.3,8.1,6.4,12.2-.3.2-.7.5-1,.7h0Z"/>
  <path d="M792.6,553.3c3.3-1,5.5-1.6,7.7-2.3,2.2-.7,4.3-1.5,6.4-2.3.3.3.6.7,1,1-2.5,2.6-4.7,5.7-7.6,7.9-11.1,8.4-23.3,14.2-37.6,15.1-9.4.6-18.7,2.3-28.1,2.5-15.6.4-29.4-5.5-41.8-14.7-22.9-16.8-34.8-40.5-40.9-67.5-1.5-6.7-1.4-13.7-2-20.6-1.5-17.6,1.3-34.7,7.2-51.2,5.8-16.4,14.8-31,27.5-42.9,12-11.2,26.2-18.8,42.5-21,7.5-1,15.4.3,23,.6,5.6.2,11.3.2,16.8,1,14.1,2.2,27,7.5,37.9,16.8,4.9,4.2,9.2,9.2,13.8,13.8-.4.5-.7,1-1.1,1.5-8-4-15.9-8-23.9-12,42.4,43.6,45,127.3-.9,174.3Z"/>
  <path d="M841.2,652.5c.5-9,4.8-18.9,12.4-27.2,4.9-5.4,10.7-9.9,16.3-14.6.8-.7,3.1-.8,4-.2,13.2,9.2,23.5,20.7,27.8,36.6.8,2.8,1.1,5.8,1.2,8.7.2,6-3.6,9.1-9.3,7.2-6.4-2.2-12.6-5.1-18.7-8-2.3-1.1-3.6-1.2-6,.2-5.5,3.1-11.4,5.8-17.5,7.7-7.8,2.4-10.1.3-10.1-10.3h0Z"/>
  <path d="M1289.7,380c-27.4-30.1-61.5-50.5-99.1-66.8,29.3-4.2,86.2,22.4,99.1,66.8Z"/>
  <path d="M1271.4,382.1c-20.9-17.1-43.7-31-69.7-40.9,23.9-8.6,62.4,10.8,69.7,40.9Z"/>
  <path d="M485.3,344.3c3-17.1,30.9-31.4,48.6-25.6-3.9,5.7-30.3,19.6-48.6,25.6Z"/>
  <path d="M1055.4,359.6c-23.7-14.1-49.1-21.9-76.7-22.3,25.4-10.9,62.5,1,76.7,22.3Z"/>
  <path d="M856.3,352.6c2.1-.9,3.2-1.8,4.2-1.7,7.6,1.1,13.7-3,20.4-5.3,1.3-.5,2.9-.2,4.8-.4.9,5.9-1.8,10.3-4.9,14.5-.8,1.1-1.9,1.9-2.8,2.9-5,5-5.8,5.4-11.3,1.1-3.8-3-6.7-7.1-10.4-11.2h0Z"/>
  <path d="M731.3,329.9c-10.4,6-21.5,7.8-33.1,9.4,3.9-9.4,23.9-15,33.1-9.4Z"/>
  <path d="M673.8,354.8c-6.5,7.9-9.3,18.7-19.4,23.8-4-7.2,4-15.1,19.4-23.8h0Z"/>
  <path d="M826.7,729.7c.3,5.9,4,11.2-.3,16.6-3-3.6-2.9-11,.3-16.6Z"/>
  <path d="M823.9,535.5c-2,6.4-4.9,8.9-11.1,8,3.4-3,6.7-6.1,10.1-9.1.3.4.7.7,1,1.1h0Z"/>
  <path d="M1093,528.3c.6,5.8-3,9.4-8.8,8.9,3.3-3.4,6.1-6.2,8.8-8.9Z"/>
  <path d="M1092.8,427.8c-3.9-2.6-5.2-6.1-4.6-10.5,4.1,1.3,5.7,4.9,4.6,10.5Z"/>
  <path d="M825.1,392.2c1.7,2.5,3.4,4.9,5.2,7.4-5.4.1-7.1-2.4-6.9-6.5.6-.3,1.1-.6,1.7-.9Z"/>
  <path class="st1" d="M352,887.8c-15.8-8.4-31.7-16.9-47.6-25.2-5.8-3-8.8-9.5-5.3-14.5,6.8-9.7,12.6-20.7,23.1-26.8,7.6-4.5,16.6-6.8,25.2-9.7,48.6-16.2,97.3-32.1,145.9-48.5,10.4-3.5,21.1-7.2,30.5-12.6,10.8-6.2,20.5-14.5,31-22.1,8.6,7.3,19.3,10.5,30.4,12.3,11,1.8,22.1,2.5,33.3,3.7-20.4,14.3-40.9,28.7-61.4,43.1-.3-.3-.6-.5-.9-.8,4.2-6.1,8.4-12.2,12.7-18.3l-.6-.6c-3.2,3.3-6.6,6.4-9.6,9.8-7,8-13.8,16-20.6,24.2-6.8,8.1-13.4,16.3-20.2,24.4-7.5,9.1-15,18.1-22.5,27.2-8.3,10.1-16.6,20.2-24.7,30.4-6.9,8.7-13.8,17.4-20.3,26.4-5.2,7.2-7.6,15.8-8.3,24.6-.5,5.9,0,12-.2,17.9,0,1.3-.9,3.1-2,3.8-9,5.6-18.4,9.7-29.1,4.4-8.7-4.2-17.2-3.8-26,.2-1.9.9-5.9-.6-7.7-2.3-12.8-11.4-19.8-25.7-18.9-43.1.3-5.6,2.8-11,3.9-16.5,2.5-13.5,2.5-26.9-1.8-40.2,1.2,9.9.9,19.7-1.9,30.1-2.2-5.2-3.9-9.8-6.2-14.1-2.2-4.2-5-8.2-7.9-12.1,3.1,8.3,6.2,16.6,9.3,24.9h-1.4s0,0,0,0Z"/>
  <path class="st1" d="M1397.1,887.3c2.9-7.8,5.7-15.7,8.6-23.5-.1-.1-.3-.2-.4-.3-2.4,3.8-4.9,7.5-7,11.5-2.2,4.1-3.8,8.5-6.2,13.9-.8-3.9-1.6-6.9-1.9-9.8-.3-3.1,0-6.3,0-9.4,0-3.3,0-6.5-.3-9.8-2.5,9.9-4.6,19.9-2.5,30.2,1.8,8.7,4.2,17.3,5.2,26.1.5,5-1.1,10.4-2.2,15.5-1.7,8.5-6.4,15.7-11.8,22.2-2.5,3-6.4,5.1-9.8,7.3-1,.6-2.9.5-4,0-8.2-4.4-16.4-4.2-24.7-.2-8.5,4.1-16.7,2.7-24.7-1.6-2.3-1.2-4.7-2.3-7.1-3.5,1.7-17,.4-33.5-9.6-47.8-6.8-9.7-14.7-18.7-22.1-27.9-8.4-10.5-16.8-21.1-25.4-31.5-7.6-9.3-15.4-18.5-23.1-27.8-8.7-10.5-17.3-21.1-26.2-31.5-6.6-7.6-13.5-14.9-21.1-21.7,4.5,6.4,8.9,12.9,13.4,19.3-.2.2-.5.5-.7.7-20.7-14.5-41.3-29-62.4-43.8,21.5-2.3,42.9-3.3,59.5-19.2,11.8,8.6,23.4,17.4,35.4,25.8,4,2.8,8.6,4.8,13.3,6.4,30,10.3,60.1,20.5,90.2,30.5,30.7,10.2,61.4,20.3,92.1,30.3,9.2,3,14.6,10.3,20.3,17.4,2.5,3.1,4.7,6.4,7,9.5,5.9,7.9,4.2,14.3-4.5,19-14.8,7.9-29.6,16-44.4,24-.4.2-.8.3-1.2.4-.5-.2-1-.4-1.5-.6h0Z"/>
  <path class="st1" d="M514.5,221.1c21,9.4,42.1,18.7,63.1,28.1.1-.2.3-.4.4-.6-8.4-5.2-16.6-10.6-25.2-15.5-31.5-17.7-65-31-99.5-41.6-13.5-4.2-27.1-7.9-40.8-11.4-2.5-.6-5.5.3-8.1,1.1-19.5,6.3-39,12.9-58.5,19.3-8.1,2.7-14.1.4-17.5-7.2-7.9-17.4-15.7-34.8-23.1-52.5-4.9-11.8.3-18.4,8.2-25.3,16.2-14.1,36.4-18.4,56.4-23.2,4.8-1.2,10.1.1,15.2-.3,6.8-.5,13.6-1.5,20.2-3.2-4.1.2-8.1.6-12.2.5-3.9-.2-7.8-1-12.2-1.7,9.3-6.9,17.8-13.2,26.3-19.6l-.8-1.3c-8,3.4-15.9,6.7-24.2,10.2.9-5.4,1.8-10.5,2.6-15.6.7-4.9,1.5-9.9,1.6-14.9.3-8.1,4.6-14.1,9.6-19.6,1.6-1.8,5-2.6,7.6-2.7,7.3-.4,14.6-.1,21.9-.1,12.1,0,23,9,25.3,20.9,3.7,19.1,9.7,37.5,16.8,55.5,4.9,12.6,11,24.5,19,35.4,2,2.8,4.3,5.4,7.3,7.6-2.3-4.3-4.6-8.5-6.8-12.8.3-.2.6-.5.9-.7,61.4,44.7,122.7,89.4,185.1,134.8h-5.6c-24.7,0-49.5,0-74.2,0-3.5,0-7,.6-10.6.8-4.1.2-7.7-.3-11.5-3.1-12.4-9.2-25.4-17.6-38.1-26.4-6.5-4.5-12.9-9.1-19.3-13.6.2-.5.4-1,.6-1.5h0Z"/>
  <path class="st1" d="M1367.9,76.9c-8.4-3.5-17-7.1-25.6-10.7l-.6,1c9,6.7,18,13.4,28,20.8-7.3.7-14,1.4-20.7,2,0,.2,0,.5,0,.7,6.2.5,12.5,1.8,18.7,1.4,11.1-.6,21.4,2.9,31.9,5.3,15,3.4,28.1,10.5,39.7,20.4,6.1,5.2,10.1,12,5.6,23-7.7,18.6-16,36.9-24.4,55.2-2.3,5.1-9,6.8-15.5,4.7-16.6-5.4-33.5-10.2-49.7-16.5-11.4-4.5-21.9-3.5-33.1-.3-26.5,7.6-52.6,16.1-78,26.7-20.6,8.6-40.8,18.2-59.5,30.5-4.5,3-9,5.9-13.3,9.1,21.4-9.6,42.7-19.2,64.1-28.8.2.4.5.8.7,1.3-1.8,1.5-3.6,3.2-5.6,4.6-18,12.5-36.1,24.8-54,37.3-2.5,1.7-4.5,2.2-7.6,1.6-5.3-1.1-10.9-1.1-16.3-1.1-23.2-.1-46.5,0-69.7,0h-5.6c62.5-45.6,123.9-90.3,185.3-135,.3.2.5.4.8.6-2.1,4-4.3,8-6.4,12.1.4.3.8.5,1.2.8,4.2-6.1,8.9-11.8,12.6-18.2,13.8-24,22.1-50.1,28-76.9,2.6-12.1,9.1-19.7,20.5-23.1,3.7-1.1,7.9-.7,11.8-.8,4.6-.1,9.3.2,13.9,0,6.4-.4,10.1,2.8,13.5,7.9,4.4,6.7,5.9,13.7,6.1,21.6.2,7.7,2.3,15.4,3.5,23.3h0Z"/>
  <path class="st1" d="M1318.5,422.1c-.1-16.7-5.2-32.3-12.6-47-7.7-15.3-18-28.7-31-40.1-12.3-10.8-25.8-19.5-40.6-26.5-26.2-12.5-54.1-18.2-82.8-18.5-48.8-.5-97.7.6-146.5.6-134.7.1-269.5,0-404.2.1-10.4,0-20.8,1.5-31.2,2.6-16.5,1.7-32.2,6.7-47.4,13.1-25,10.7-46.7,25.7-63.4,47.4-17.1,22.3-26.5,47.3-26.6,75.6-.1,43.5-.1,87.1,0,130.6,0,6.7.7,13.5,1.8,20.2,3.9,23.6,14.8,43.9,30.5,61.6,14.7,16.6,32.5,29.2,52.7,38.4,7.3,3.3,15,6,22.5,9-5.3-9.4-9.8-18.6-11.2-29.1,5.1,9,12.2,16.2,20.4,22.1,8.2,5.9,17.3,10.3,27.5,13.5-4.4-7.7-8.4-14.9-8.7-23.3,5.3,8.1,12.3,14.2,20.5,18.6,6.4,3.5,13.8,7.1,20.8,7.3,39.6,1,79.2,1,118.8,1.2,28.1.1,56.3-.8,84.3,3.6,11.9,1.9,23.9,4,35.8,5.9,0,.5,0,1,0,1.6-24.1,6-48.7,8.9-73.8,9.7,3.1,9.3,6,18.3,9,27.2.9,2.6,2.7,4,5.7,3.9,4.2-.2,8.4-.2,12.5,0,3,.1,4.3-.7,5.2-3.8,1.7-5.9,4.2-11.6,6.3-17.4,2.9,6.2,4.8,12.3,7,18.3.4,1.2,2,2.8,3.1,2.8,15.2.2,30.4.1,45.5.1,2.3-7.3,4.4-14.3,7-22.6,2.3,7.3,4.3,13.1,5.9,19.1.8,3,2.2,3.6,5,3.5,7.2-.2,14.3,0,21.5,0h15.8c0-3.1-.2-5.6,0-8.1.1-1.2,1.2-2.3,1.8-3.4.5,1.1,1.5,2.1,1.6,3.2.2,2.6,0,5.3,0,8.6,6.2-1.3,4.7-6.6,6.1-9.9,1.6-3.8,2.2-7.9,3.3-11.9h.8c2.4,7.1,4.8,14.2,7.2,21.5,6.9,0,13.8-.3,20.6.1,4.4.3,6.8-1.5,7.8-5.4,2.4-9.1,4.7-18.3,7-27.7-27.1-.6-53.4-3.6-79.7-8.4,10.5-2.1,20.9-4,31.5-5.1,14.6-1.5,29.3-2.6,44-3.6,9.5-.6,19-.9,28.4-.9,41.7,0,83.5,0,125.2,0s2.7.2,4,0c15.9-3.8,30.5-10.1,41-23.3,1.3-1.7,2.8-3.3,4.2-4.9.5.3.9.5,1.4.8-3.6,8.3-7.1,16.5-10.7,25,20.5-6.4,37.9-17.1,49.6-36-1.8,10.9-6.2,20.4-12.8,29,.2.3.5.6.7.8,6.1-2.2,12.3-4.2,18.4-6.6,20-7.8,38.2-18.8,53.3-33.9,8.5-8.4,16-18.1,22.6-28,11-16.4,17.8-35.1,18.1-54.7.7-48.8-.2-97.7-.6-146.5h0ZM829.7,746.3c-3-3.6-2.9-11,.3-16.6.3,5.9,4,11.2-.3,16.6ZM1058.7,359.6c-23.7-14.1-49.1-21.9-76.7-22.3,25.4-10.9,62.5,1,76.7,22.3ZM863.8,351c7.6,1.1,13.7-3,20.4-5.3,1.3-.5,2.9-.2,4.8-.4.9,5.9-1.8,10.3-4.9,14.5-.8,1.1-1.9,1.9-2.8,2.9-5,5-5.8,5.4-11.3,1.1-3.8-3-6.7-7.1-10.4-11.2,2.1-.9,3.2-1.8,4.2-1.7h0ZM734.6,329.9c-10.4,5.9-21.5,7.8-33.1,9.4,3.9-9.3,23.9-15,33.1-9.4ZM677.1,354.8c-6.5,7.9-9.3,18.7-19.4,23.8-4-7.2,4-15.1,19.4-23.8ZM816.1,543.5c3.4-3,6.7-6.1,10.1-9.1.3.4.7.7,1,1.1-2,6.3-4.9,8.9-11.1,8ZM795.9,553.3c3.3-1,5.5-1.6,7.7-2.3,2.2-.7,4.3-1.5,6.4-2.3.3.3.6.7,1,1-2.5,2.6-4.7,5.7-7.6,7.9-11.1,8.4-23.3,14.2-37.6,15.1-9.4.6-18.7,2.3-28.1,2.5-15.6.4-29.4-5.5-41.8-14.7-22.9-16.8-34.8-40.5-40.9-67.5-1.5-6.7-1.4-13.7-2-20.6-1.5-17.6,1.3-34.7,7.2-51.2,5.8-16.4,14.8-31,27.5-42.9,12-11.2,26.2-18.8,42.5-21,7.5-1,15.4.3,23,.6,5.6.2,11.3.2,16.8,1,14.1,2.2,27,7.5,37.9,16.8,4.9,4.2,9.2,9.2,13.8,13.8-.4.5-.7,1-1.1,1.5-8-4-15.9-8-23.9-12,42.4,43.6,45,127.3-.9,174.3h0ZM826.7,393.2c.6-.3,1.1-.6,1.7-.9,1.7,2.5,3.4,4.9,5.2,7.4-5.4.1-7.1-2.4-6.9-6.5ZM896.8,663c-6.4-2.2-12.6-5.1-18.7-8-2.3-1.1-3.6-1.2-6,.2-5.5,3.1-11.4,5.8-17.5,7.7-7.8,2.4-10.1.3-10.1-10.3.5-8.9,4.8-18.9,12.4-27.2,4.9-5.4,10.7-9.9,16.3-14.6.8-.7,3.1-.8,4-.2,13.2,9.2,23.5,20.7,27.8,36.6.7,2.8,1.1,5.8,1.2,8.7.2,6-3.6,9.1-9.3,7.2ZM1067.1,556.4c-14.2,10.2-30.2,15-47.8,16.5-8.7.7-17.4,2.6-26.3,2.4-17.3-.5-32.4-6.8-45.8-17.5-22.2-17.7-34-41.4-39.1-68.7-1.8-9.9-2.5-20.4-1.8-30.4,1.7-25.4,9.2-48.9,25.7-69.1,12.8-15.6,28.3-26.7,48.1-31.1,12.4-2.8,24.9-2.2,37.3.6,8.9,2,18,3.8,26.5,7,16.3,6.2,28.7,17.5,38,32.2,2.4,3.9,4.3,8.1,6.4,12.2-.3.2-.7.5-1,.7-7.6-6.8-15.2-13.6-22.8-20.4,33,45,33.3,117-10,162.4,8.5-3.4,17-6.9,25.6-10.3.3.5.7,1,1,1.4-4.6,4.1-9,8.5-14,12.1ZM1087.5,537.2c3.4-3.4,6.1-6.2,8.8-8.9.6,5.8-3,9.4-8.8,8.9ZM1096,427.8c-3.9-2.6-5.2-6.1-4.6-10.5,4.1,1.3,5.7,4.9,4.6,10.5ZM1205,341.3c23.9-8.6,62.4,10.8,69.7,40.9-20.9-17.1-43.7-31-69.7-40.9h0ZM1193.9,313.2c29.3-4.2,86.2,22.4,99.1,66.8-27.4-30.1-61.5-50.5-99.1-66.8h0Z"/>
  <polygon class="st0" points="1131.9 733.4 1181.6 768.5 1195.2 787.6 1174.7 791.5 1119.3 740.9 1114.9 728.3 1131.9 733.4"/>
  <path class="st0" d="M1191.6,778s98.8,82.4,128.4,113.8c11.8,12.6,11,28.2,11,28.2,0,0,6.8-3.6,21.6-3.1s21.3,8.3,21.3,8.3c0,0,13.8-1.7,13-51.5,0-7.4,8,38.8,8,38.8v42.6l-21.9,17.6-39.5-2.5-27.1-5.2-8.6-8.3-12.3-45.6-20.7-17.9-50.3-68.2-13.3-17.9-9.6-29.1h0Z"/>
  <polygon class="st0" points="1223 226 1141.5 276.7 1193.9 266.2 1239.8 231 1250 221 1244.1 210.4 1223 226"/>
  <path class="st0" d="M676.4,359.6c-5.4,4.8-10.1,10-14.4,15.3-4.3,5.4-8.1,11-11.6,16.8-1.7,3-3.5,5.9-4.9,9l-1.2,2.3-.6,1.1c-.2.4-.4.8-.6,1.2-.7,1.6-1.5,3.1-2.2,4.7-.4.8-.8,1.5-1.1,2.4-.3.8-.7,1.6-1,2.4-.7,1.6-1.4,3.2-2.2,4.8-1.4,3.2-2.7,6.5-4.4,9.8,0-1.8,0-3.6,0-5.5,0-1.8.2-3.7.4-5.5.3-1.8.6-3.6.9-5.4.3-1.8.7-3.6,1.2-5.3.5-1.8,1-3.5,1.6-5.3.1-.4.3-.9.4-1.3l.5-1.3,1.1-2.5c.3-.9.7-1.7,1.1-2.5.3-.9.8-1.7,1.2-2.5l2.6-4.9c3.8-6.3,8.5-12.2,14.1-17.1,1.4-1.2,2.8-2.4,4.3-3.5.8-.5,1.5-1.1,2.3-1.6l2.4-1.5c3.2-1.8,6.5-3.5,10.1-4.3Z"/>
  <path class="st0" d="M582.3,308.9c-10.5,4.2-20.9,8.2-31,12.5-10.1,4.2-20.1,8.7-29.7,13.6-1.2.6-2.4,1.2-3.6,1.9-1.2.6-2.4,1.3-3.6,1.9-1.2.7-2.4,1.3-3.5,2-1.2.7-2.3,1.4-3.5,2-4.6,2.8-9.1,5.7-13.5,8.8-4.4,3.2-8.6,6.5-12.7,10.2-4.1,3.7-7.9,7.6-11.8,11.8,1.8-5.4,4.5-10.5,7.7-15.3,3.3-4.8,7.1-9.1,11.2-13.2,4.2-4,8.7-7.6,13.4-10.9,1.2-.8,2.4-1.6,3.6-2.4,1.2-.8,2.4-1.5,3.7-2.3,1.2-.8,2.5-1.4,3.7-2.1,1.3-.7,2.5-1.4,3.8-2,10.2-5.2,21-9.2,32-12.1,5.5-1.4,11.1-2.5,16.7-3.3,5.6-.7,11.3-1.3,17-1.1Z"/>
  <path class="st0" d="M877.2,610.5s35.9,19.2,37.8,41.2c.8,8.8-6.9,15.8-15.7,14.7-23.2-2.9-22.1-33.2-22.1-33.2v-22.7h0Z"/>
  <path class="st0" d="M1342.9,425.7l-7.7,117.9-26.2,93.3-74.2,67.2-109.2,24.3,1.1-8.5-35.4-1.5-105.2-17.4c35.2,2.8,68.5-3.1,98.1-12.9,52.4-17.3,92.2-60.6,105.5-114.1,40.1-160.5,18-254.5-58.9-285.9-54.5-22.3,96.6-9.1,96.6-9.1l79.5,54.2,35.9,92.6h0Z"/>
  <path class="st0" d="M785.4,369.8s118.5,65.1,10,188.6l-51.2,5.5-7.2-82.9,31.2-73.4,17.2-37.8h0Z"/>
  <polygon class="st0" points="618.3 733.4 568.5 768.5 554.9 787.6 575.5 791.5 630.8 740.9 635.2 728.3 618.3 733.4"/>
  <path class="st0" d="M558.6,778s-98.8,82.4-128.4,113.8c-11.8,12.6-11,28.2-11,28.2,0,0-6.8-3.6-21.6-3.1-14.8.5-21.3,8.3-21.3,8.3,0,0-13.8-1.7-13-51.5,0-7.4-8,38.8-8,38.8v42.6l21.9,17.6,39.5-2.5,27.1-5.2,8.6-8.3,12.3-45.6,20.7-17.9,50.3-68.2,13.3-17.9,9.6-29.1h0Z"/>
  <path class="st0" d="M1067,386.4s72,78.5-2.1,165.9l-24,11.6-18-102.5,26.2-63.9.9-11.1h17.1Z"/>
  <path class="st0" d="M936.2,730.1s-19.1,25-38.8,23.8l31.7,7.6,8.9-11.4-1.8-19.9Z"/>
  <path class="st0" d="M874.8,730.1s-19.1,25-38.8,23.8l31.7,7.6,8.9-11.4-1.8-19.9Z"/>
  <path class="st0" d="M812.8,730.9s-19.1,25-38.8,23.8l31.7,7.6,8.9-11.4-1.8-19.9Z"/>
  <polygon class="st0" points="990.1 708 962.8 708 951.6 758.4 982.1 761.5 990.1 708"/>
  <path class="st0" d="M1424.4,96.2l-16.5,57.4c-3.5,12.1-16.2,19-28.2,15.3l-28-8.6c-20.5-6.3-42.7-3-60.4,8.9l-106.7,71.7,50.8-19.7,107.6-21.5,81.4,14.2,27.6-49,4.7-46.9-32.3-21.9h0Z"/>
  <polygon class="st0" points="525.9 226 607.4 276.7 555 266.2 509 231 498.9 221 504.8 210.4 525.9 226"/>
  <path class="st0" d="M324.5,96.2l16.5,57.4c3.5,12.1,16.2,19,28.2,15.3l28-8.6c20.5-6.3,42.7-3,60.4,8.9l106.7,71.7-50.8-19.7-107.6-21.5-81.4,14.2-27.6-49-4.7-46.9,32.3-21.9h0Z"/>
  <path d="M433.9,0c9.1,2.8,17.3,7.2,24.7,13.2,7.6,6.2,12.5,14,14.5,23.3,5,23.4,10.8,46.5,20.6,68.4,1.1,2.4,3.1,4.6,5.2,6.2,21.4,15.6,42.9,31,64.3,46.4,17.2,12.4,34.4,24.8,51.5,37.2,19.2,13.8,38.4,27.7,57.6,41.5,12.8,9.2,25.6,18.5,38.4,27.6,1,.7,2.5.9,3.7.9,106.9,0,213.7,0,320.6,0,1.9,0,4.1-.7,5.6-1.8,15.7-11.2,31.3-22.5,46.9-33.9,18.9-13.7,37.9-27.4,56.8-41.1,14.1-10.2,28.2-20.3,42.4-30.4,19.9-14.3,39.4-29.3,59.9-42.8,8.4-5.5,11.8-13,14.4-21.4,5.7-18.6,11.2-37.4,15.8-56.3,3.2-12.9,10.5-22.2,21.4-28.7,5.7-3.4,12.2-5.6,18.3-8.4,12.2,0,24.4,0,36.7,0,7.2,2.7,14.6,5.1,19.8,11.3,8.7,10.6,15.1,22.2,15.2,36.5,0,5.7,1,11.4,1.8,17.1.1.8,1.4,2,2.3,2.2,10.8,3.1,21.6,5.8,32.4,9,11,3.2,20,10,29,16.8,6.5,4.9,12.4,10.5,16.2,17.9,6.3,12.3,6.8,25,2.7,38-7.1,22.4-17.3,43.5-29.3,63.5-6.3,10.5-17.1,16.1-30,16.9-11.5.8-21.4-4-31.6-7.9-13.8-5.4-27.6-11-41.4-16.5-.9-.4-2.2-.2-3.2.1-19.2,6-38.5,11.4-57.4,18.3-8.2,3-15.5,8.6-22.9,13.5-13.2,8.9-26.2,18.1-39.2,27.2-3.7,2.6-7.4,5.1-11.5,8.1,7.6,2.4,14.6,4.5,21.4,7,20.9,7.6,40.2,18,57.3,32.4,18.4,15.4,33.5,33.4,43.7,55.3,6.1,13.2,10.5,26.9,12.3,41.3.7,6.1,1.4,12.2,2.1,17.8,7.5-2.7,15-6.3,22.9-8,7.1-1.6,14.8-2.2,22-1.4,8.7.9,11.9,13.4,5.9,19.8-3.4,3.6-6.7,7.4-10.1,11.1,9.3,3.4,18.3,6.7,27.2,9.9,7,2.6,9.2,5.9,9.8,12.4.8,8.6-4.5,12.2-9.9,14.3-7.7,3-15.6,5.5-23.5,8.2-1.1.4-2.1.8-3.6,1.4,3.7,4.3,7.2,8.2,10.6,12.2,3.2,3.8,2.9,8.4,1.3,12.5-1.7,4.3-5.2,6.9-10.2,7-13.6.4-26.5-2.5-38.5-9-1.5-.8-3.1-1.5-5.1-2.5,0,17.4.3,34.2,0,51-.4,18.2-4.9,35.5-12.2,52.1-9.3,21.1-23,39-40.2,54.2-16.1,14.2-34.4,25.2-54.4,33.1-6.8,2.7-13.8,5-21.2,7.6,7.7,5.7,14.8,11.5,22.3,16.4,4.7,3.1,9.9,5.5,15.2,7.3,59,20.1,118.1,40,177.1,59.9,11.4,3.8,20.4,10.8,27.6,20.1,5.4,7,11.4,13.9,15.5,21.7,9.5,18.1,1.7,40.1-18.9,47.8-12.7,4.7-25.1,10.2-37.4,15.2.9,5.8,2.6,11.4,2.6,17.1,0,18.6-5.9,35.3-17.4,50-7.1,9.1-15.3,17-27.1,18.9-5,.8-10.5.2-15.5-1-4.1-1-7.3-2-11.7-.2-15.9,6.3-30.7,2.1-44.8-6-2.3-1.3-4.6-2.6-6.7-4.1-9.4-6.3-11.9-13-9.8-24,2.1-11.4-.7-21.8-7.7-30.9-9.9-12.9-20.1-25.5-30.2-38.3-10.6-13.3-21.2-26.6-31.7-39.9-7.2-9.2-14-18.8-21.6-27.7-3.7-4.3-8.7-7.6-13.5-10.8-24.5-16.7-49.1-33.1-73.6-49.8-15.2-10.4-30.2-21.1-45.3-31.5-1.4-1-3.6-1.4-5.4-1.4-11.5-.1-23,0-34.4-.1-3.7,0-7.3-.8-11-.7-1.3,0-3.2,1.5-3.6,2.7-2.6,9.8-4.7,19.8-7.4,29.7-3.6,13-11.1,22.7-24.9,26-1.7.4-3.5.5-5.3.5-60.7,0-121.3,0-182,0-12.9,0-22.2-5.9-27.3-17.3-4.7-10.5-8-21.6-11.7-32.4-2.6-7.6-2.5-7.6-10.4-7.6-14,0-28,0-42,0-3.4,0-6.1.8-9,2.7-27.4,18.9-54.9,37.7-82.4,56.5-14.5,9.9-29.3,19.2-43.3,29.7-5.4,4-9,10.3-13.3,15.7-10.3,13.1-20.6,26.3-30.9,39.4-10.7,13.6-21.3,27.2-32,40.8-4.5,5.8-9.3,11.4-13.6,17.3-6.8,9.4-6.8,20.2-5.5,31,1,8.2-.7,14-7.7,19-9.5,6.7-19.6,12.4-31.2,14-5.7.8-12.1.9-17.4-.8-6.8-2.2-12.8-2.7-19.7-.5-11.1,3.5-20.9-.8-29.2-7.8-12.5-10.6-20.9-24.1-25.1-40-3.1-11.6-3.8-23.2-.3-34.8.8-2.5.4-3.2-2-4.1-13.1-5.2-26.3-10.3-39.2-16.1-13.3-6-21-21.2-18.5-36,1.9-11,9.2-18.4,15.4-26.6,4.3-5.7,9.2-11.2,14.6-15.9,7.8-6.9,17.7-9.8,27.5-13,24.9-8.1,49.8-16.4,74.6-24.8,29.1-9.8,58.1-19.9,87.3-29.3,13.7-4.4,24.7-12.8,35.9-21.2,1.6-1.2,3.3-2.4,5-3.7-22.6-6.4-43.3-16.3-62.2-29.9-25.7-18.4-44.7-42.2-56.3-71.7-4.9-12.4-8.5-25.3-8.9-38.6-.6-18.4-.7-36.9-1-55.3,0-.6,0-1.2,0-2-5,2-9.9,4.1-14.9,6-8.5,3.2-17.3,4.4-26.3,4.2-5.1,0-9-1.9-11.1-6.5-2.3-5.2-1.7-10.3,2.4-14.6,3.2-3.5,6.3-7,9.7-10.8-5.9-2-11.5-3.7-17.1-5.7-4.5-1.6-8.9-3.5-13.4-5.4-4.8-2.1-6.9-6.1-7.1-11.2-.2-5.4,1.7-10.1,6.9-12.2,9.9-4.1,19.9-7.8,30.1-11.8-2.8-3.3-6-7.1-9.3-10.8-3.8-4.3-5-8.8-2.2-14.1,2.8-5.4,7.7-7.3,13.2-6.8,6.5.5,13.1,1.5,19.4,3.2,6.7,1.8,13,4.7,19.5,7.2,0-13.1,2.3-26.3,6.3-39.3,3.7-12.1,8.8-23.5,15.3-34.3,8.1-13.4,17.7-25.5,29.6-35.5,10.5-8.8,21.9-16.6,33.5-23.9,7.8-5,16.5-8.8,25.1-12.3,8.6-3.5,17.6-5.9,26.9-9-10-6.9-20.1-13.7-30.1-20.6-11.5-7.9-22.7-16.5-34.7-23.7-6.9-4.1-15-6.2-22.7-8.8-13.5-4.5-27.2-8.5-40.7-13.1-5.2-1.8-9,1.1-13.1,2.6-16.1,6.1-31.8,13.1-48,18.9-18,6.4-38.6,1.2-48.8-17.1-11.2-20-21.4-40.5-28.2-62.6-5.8-19-1.3-35.7,12.9-49,14.8-13.8,32.4-23.3,52.5-27.4,4.4-.9,8.8-1.8,13.3-2.7,4.2-.8,5.2-3.2,5.7-10.3.6-8.2.6-16.6,2.9-24.4,3.3-11.2,9.7-21.1,19.8-27.7,3.9-2.5,8.6-3.8,13-5.6h36.7,0ZM1205.9,691c.2.3.5.6.7.8,6.1-2.2,12.3-4.2,18.4-6.6,20-7.8,38.2-18.8,53.3-33.9,8.5-8.4,16-18.1,22.6-28,10.9-16.4,17.8-35.1,18.1-54.7.7-48.8-.2-97.7-.6-146.5-.1-16.7-5.2-32.3-12.6-47-7.7-15.3-18-28.7-31-40.1-12.3-10.8-25.8-19.5-40.6-26.5-26.2-12.5-54.1-18.2-82.8-18.5-48.8-.5-97.7.6-146.5.6-134.7.1-269.5,0-404.2.2-10.4,0-20.8,1.5-31.2,2.6-16.5,1.7-32.2,6.7-47.4,13.1-25,10.6-46.7,25.7-63.4,47.4-17.1,22.3-26.5,47.3-26.6,75.6-.1,43.5-.1,87.1,0,130.6,0,6.7.7,13.5,1.8,20.2,3.9,23.6,14.8,43.9,30.5,61.6,14.7,16.6,32.6,29.2,52.7,38.4,7.3,3.3,15,6,22.5,9-5.3-9.5-9.8-18.6-11.2-29.2,5.1,9,12.2,16.2,20.4,22.1,8.2,5.9,17.3,10.4,27.5,13.5-4.4-7.7-8.4-14.9-8.8-23.3,5.3,8.1,12.3,14.2,20.5,18.6,6.4,3.4,13.8,7.1,20.8,7.3,39.6,1,79.2,1,118.8,1.2,28.1.1,56.3-.8,84.2,3.6,11.9,1.9,23.9,4,35.8,5.9,0,.5,0,1,0,1.6-24.1,6-48.7,8.9-73.8,9.7,3.1,9.3,6,18.2,9,27.2.9,2.6,2.7,4,5.7,3.9,4.2-.2,8.4-.2,12.5,0,3,.2,4.3-.7,5.2-3.8,1.7-5.9,4.2-11.6,6.3-17.5,2.9,6.2,4.8,12.3,7,18.3.4,1.2,2,2.8,3.1,2.8,15.2.2,30.4.1,45.5.1,2.3-7.3,4.4-14.3,7-22.6,2.3,7.3,4.3,13.1,5.9,19.1.8,3,2.2,3.6,5,3.5,7.2-.2,14.3,0,21.5,0s10.3,0,15.8,0c0-3.1-.2-5.6,0-8.1.1-1.2,1.2-2.3,1.8-3.4.5,1.1,1.5,2.1,1.6,3.2.2,2.6,0,5.3,0,8.6,6.2-1.3,4.8-6.6,6.1-9.9,1.6-3.8,2.2-7.9,3.3-11.9.3,0,.6,0,.8,0,2.4,7.1,4.8,14.2,7.2,21.4,6.9,0,13.8-.3,20.6.1,4.4.3,6.8-1.5,7.8-5.4,2.4-9.1,4.7-18.3,7-27.6-27.1-.6-53.4-3.6-79.7-8.4,10.5-2.1,20.9-4,31.5-5.1,14.6-1.5,29.3-2.6,44-3.6,9.5-.6,19-.9,28.4-.9,41.7,0,83.5,0,125.2,0,1.3,0,2.7.2,4,0,15.9-3.8,30.5-10.1,41-23.3,1.3-1.7,2.8-3.3,4.2-4.9.5.3,1,.5,1.4.8-3.6,8.3-7.1,16.5-10.7,25,20.5-6.4,37.9-17.1,49.6-36-1.8,10.9-6.2,20.4-12.8,29h0ZM1367.9,76.9c-1.3-7.9-3.3-15.6-3.5-23.3-.2-7.9-1.7-14.9-6.1-21.6-3.3-5-7.1-8.3-13.5-7.9-4.6.3-9.2,0-13.9,0-4,.1-8.1-.3-11.8.8-11.4,3.5-17.9,11-20.5,23.1-5.8,26.8-14.1,53-28,76.9-3.7,6.4-8.4,12.2-12.6,18.2-.4-.3-.8-.5-1.2-.8,2.1-4,4.3-8,6.4-12.1-.3-.2-.5-.4-.8-.6-61.4,44.7-122.8,89.5-185.3,135h5.6c23.2,0,46.5,0,69.7,0,5.5,0,11,0,16.3,1.1,3.2.6,5.2.1,7.6-1.6,18-12.5,36-24.9,54-37.3,2-1.4,3.7-3,5.6-4.6-.2-.4-.5-.8-.7-1.3-21.4,9.6-42.7,19.2-64.1,28.8,4.3-3.3,8.8-6.2,13.3-9.1,18.7-12.3,38.9-21.9,59.5-30.5,25.4-10.6,51.5-19.1,78-26.7,11.2-3.2,21.7-4.2,33.1.3,16.2,6.4,33.1,11.1,49.7,16.5,6.4,2.1,13.2.4,15.5-4.7,8.3-18.3,16.7-36.6,24.4-55.2,4.5-10.9.5-17.7-5.6-23-11.6-9.9-24.6-17-39.7-20.4-10.6-2.4-20.8-5.9-31.9-5.3-6.2.4-12.4-.9-18.7-1.4,0-.2,0-.5,0-.7,6.7-.6,13.4-1.3,20.7-2-10-7.4-19-14.1-28-20.8l.6-1c8.6,3.6,17.2,7.2,25.6,10.7h0ZM514.5,221.1c-.2.5-.4,1-.6,1.5,6.4,4.5,12.8,9.1,19.3,13.6,12.7,8.8,25.7,17.2,38.1,26.4,3.8,2.8,7.4,3.3,11.5,3.1,3.5-.2,7-.8,10.6-.8,24.7,0,49.5,0,74.2,0h5.6c-62.4-45.4-123.7-90.1-185.1-134.8-.3.2-.6.5-.9.7,2.3,4.3,4.6,8.5,6.8,12.8-3-2.2-5.2-4.8-7.3-7.6-8-10.9-14.1-22.8-19-35.4-7.1-18.1-13.1-36.4-16.8-55.5-2.3-11.8-13.2-20.9-25.3-20.9-7.3,0-14.6-.2-21.9.1-2.6.1-6,.9-7.6,2.7-5,5.5-9.4,11.6-9.6,19.6-.2,5-.9,9.9-1.6,14.9-.7,5.1-1.7,10.2-2.6,15.6,8.3-3.5,16.2-6.9,24.2-10.2l.8,1.3c-8.5,6.3-17,12.7-26.3,19.6,4.4.6,8.3,1.5,12.2,1.7,4,.2,8.1-.3,12.2-.5-6.7,1.7-13.4,2.7-20.2,3.2-5,.4-10.4-.9-15.2.3-19.9,4.8-40.2,9.1-56.4,23.2-7.9,6.8-13.1,13.5-8.2,25.3,7.3,17.6,15.2,35.1,23.1,52.5,3.4,7.6,9.4,9.9,17.5,7.2,19.5-6.4,39-12.9,58.5-19.3,2.6-.8,5.7-1.8,8.1-1.1,13.7,3.5,27.3,7.2,40.8,11.4,34.5,10.6,67.9,23.9,99.5,41.6,8.6,4.8,16.8,10.3,25.2,15.5-.1.2-.3.4-.4.6-21-9.4-42.1-18.7-63.1-28.1h0ZM1397.1,887.3c.5.2,1,.4,1.5.6.4-.1.9-.2,1.2-.4,14.8-8,29.5-16.1,44.4-24,8.7-4.6,10.4-11.1,4.5-19-2.4-3.2-4.6-6.4-7-9.5-5.7-7.1-11.1-14.4-20.3-17.4-30.7-10.1-61.4-20.1-92.1-30.3-30.1-10-60.2-20.2-90.2-30.5-4.6-1.6-9.3-3.6-13.3-6.4-12-8.3-23.6-17.1-35.4-25.8-16.7,15.9-38,16.9-59.5,19.2,21.1,14.8,41.7,29.3,62.4,43.8.2-.2.5-.5.7-.7-4.5-6.4-8.9-12.9-13.4-19.3,7.6,6.8,14.6,14.1,21.1,21.7,8.9,10.4,17.5,21,26.2,31.5,7.7,9.3,15.5,18.4,23.1,27.8,8.5,10.4,16.9,21,25.4,31.5,7.4,9.3,15.4,18.2,22.1,27.9,10,14.3,11.3,30.8,9.6,47.8,2.4,1.2,4.8,2.3,7.1,3.5,8,4.2,16.2,5.7,24.7,1.6,8.3-4,16.4-4.2,24.7.2,1.1.6,3.1.7,4,0,3.4-2.2,7.3-4.2,9.8-7.3,5.4-6.5,10-13.7,11.8-22.2,1-5.1,2.7-10.5,2.2-15.5-.9-8.8-3.3-17.4-5.2-26.1-2.2-10.3,0-20.3,2.5-30.2.3,3.3.3,6.6.3,9.8,0,3.1-.2,6.3,0,9.4.3,3,1.1,5.9,1.9,9.8,2.4-5.4,4-9.7,6.2-13.9,2.1-4,4.7-7.7,7-11.5.1.1.3.2.4.3-2.9,7.8-5.7,15.7-8.6,23.5h0ZM352,887.8h1.4c-3.1-8.3-6.2-16.6-9.3-24.9,2.9,3.9,5.7,7.9,7.9,12.1,2.2,4.3,3.9,8.9,6.2,14.1,2.8-10.4,3.1-20.2,1.9-30.1,4.4,13.3,4.4,26.7,1.8,40.2-1,5.6-3.6,11-3.9,16.5-.9,17.4,6.2,31.7,18.9,43.1,1.9,1.7,5.8,3.1,7.7,2.3,8.8-3.9,17.4-4.4,26-.2,10.7,5.2,20.1,1.2,29.1-4.4,1.1-.7,2-2.5,2-3.8.2-6-.3-12,.2-17.9.7-8.8,3.1-17.3,8.3-24.6,6.5-9,13.4-17.7,20.3-26.4,8.1-10.2,16.5-20.3,24.7-30.4,7.5-9.1,15-18.1,22.5-27.2,6.7-8.1,13.4-16.3,20.2-24.4,6.8-8.1,13.6-16.2,20.6-24.2,3-3.4,6.4-6.5,9.6-9.8l.6.6c-4.2,6.1-8.4,12.2-12.7,18.3.3.3.6.5.9.8,20.5-14.4,41-28.8,61.4-43.1-11.3-1.2-22.4-1.9-33.3-3.7-11.1-1.8-21.9-5-30.4-12.3-10.5,7.6-20.1,15.9-31,22.1-9.5,5.4-20.1,9.1-30.5,12.6-48.6,16.3-97.3,32.3-145.9,48.5-8.5,2.8-17.5,5.2-25.2,9.7-10.4,6.1-16.3,17.1-23.1,26.8-3.5,5.1-.5,11.5,5.3,14.5,15.9,8.4,31.7,16.8,47.6,25.2h0ZM1342.6,479.1c0,4.6-.1,8.9,0,13.2,0,1.1.7,2.6,1.6,3.2,4.6,3.1,9.1,6.5,14.1,8.8,5.2,2.4,11,3.7,16.5,5.4.2-.4.4-.8.5-1.3-1.9-2.2-3.7-4.5-5.6-6.7-8.7-10-5.4-19.9,7.4-23.2,8.2-2.2,16.2-5.1,24.4-7.7,0-.4,0-.8,0-1.2-8.7-2.7-17.3-5.6-26.1-7.9-5.2-1.4-8.7-3.8-10-9.1-1.1-4.8.2-8.9,3.6-12.5,2.6-2.7,4.9-5.7,7.3-8.6-.2-.5-.5-.9-.7-1.4-7.6,3-15.5,5.5-22.8,9.2-10.7,5.3-11.9,8.5-9.4,18.7,4.7-1.7,9.5-3.3,14.2-5,.2.2.4.5.6.7-4.5,5.1-9,10.3-13.4,15.4,4.9,2.7,9.7,5.3,15.4,8.5-6.5.5-11.7,1-17.4,1.4h0ZM349.1,469.7c0,.5,0,1,0,1.4,7.2,2.2,14.4,4.3,21.5,6.7,4,1.4,8.7,2.6,11.6,5.4,4.5,4.2,3.4,12.4-.9,17.3-2.4,2.7-4.6,5.5-7.4,8.8,10.7-1.2,19.7-4.6,27.7-10.5,2.2-1.6,4.7-4,5.2-6.3.9-4.2.2-8.8.2-13.4-5.8,2-11.2,3.9-16.7,5.8-.2-.2-.3-.4-.5-.6,4.8-5.3,9.5-10.5,14.3-15.8-5.1-2.6-9.9-5.1-14.7-7.6,0-.3.2-.5.3-.8,5.7-.5,11.3-.9,17.3-1.4,0-3.6.2-7.2-.1-10.7,0-1.2-1.2-2.5-2.1-3.3-8.7-7.7-19.2-11.3-31-13.1,2.4,2.8,4.3,5.3,6.5,7.6,6,5.9,6.4,16.1-.3,20.5-2.3,1.5-5.3,2.2-8,3.1-7.6,2.4-15.3,4.8-23,7.2h0Z"/>
  <path class="st0" d="M1342.6,479.1c5.7-.5,10.9-.9,17.4-1.4-5.7-3.2-10.5-5.8-15.4-8.5,4.5-5.1,9-10.3,13.4-15.4-.2-.2-.4-.5-.6-.7-4.7,1.7-9.4,3.3-14.2,5-2.4-10.2-1.2-13.3,9.4-18.7,7.3-3.7,15.2-6.1,22.8-9.2.2.5.5.9.7,1.4-2.4,2.9-4.7,5.8-7.3,8.6-3.4,3.6-4.7,7.7-3.6,12.5,1.3,5.3,4.8,7.8,10,9.1,8.8,2.3,17.4,5.3,26.1,7.9,0,.4,0,.8,0,1.2-8.1,2.6-16.1,5.5-24.4,7.7-12.9,3.4-16.2,13.3-7.4,23.2,1.9,2.2,3.8,4.4,5.6,6.7-.2.4-.4.8-.5,1.3-5.5-1.8-11.3-3-16.5-5.4-5-2.3-9.5-5.7-14.1-8.8-.9-.6-1.5-2.1-1.6-3.2-.2-4.3,0-8.6,0-13.2h0Z"/>
  <path class="st1" d="M349.1,469.7c7.7-2.4,15.3-4.7,23-7.2,2.7-.9,5.7-1.6,8-3.1,6.6-4.3,6.2-14.6.3-20.5-2.2-2.2-4.2-4.8-6.5-7.6,11.8,1.9,22.3,5.5,31,13.1,1,.8,2,2.1,2.1,3.3.3,3.5.1,7.1.1,10.7-6,.5-11.6.9-17.3,1.4,0,.3-.2.5-.3.8,4.8,2.5,9.7,5,14.7,7.6-4.8,5.3-9.5,10.6-14.3,15.8.2.2.3.4.5.6,5.4-1.9,10.8-3.8,16.7-5.8,0,4.7.6,9.2-.2,13.4-.5,2.4-3,4.7-5.2,6.3-8,5.9-17,9.3-27.7,10.5,2.8-3.3,5-6.1,7.4-8.8,4.3-4.9,5.3-13,.9-17.3-2.9-2.8-7.6-4-11.6-5.4-7.1-2.4-14.3-4.5-21.5-6.7,0-.5,0-1,0-1.4h0Z"/>
  <path d="M1087.3,411.2c-7.6-6.8-15.2-13.6-22.8-20.4,33,45,33.2,117-10,162.4,8.5-3.4,17-6.9,25.6-10.3l1,1.4c-4.6,4.1-9,8.6-14,12.1-14.2,10.2-30.2,15-47.8,16.5-8.7.7-17.4,2.6-26.3,2.4-17.3-.5-32.4-6.8-45.8-17.5-22.2-17.7-34-41.4-39.1-68.7-1.8-9.9-2.5-20.4-1.8-30.4,1.7-25.4,9.2-48.9,25.7-69.1,12.8-15.6,28.3-26.7,48.1-31.1,12.4-2.8,24.9-2.2,37.3.6,8.9,2,18,3.8,26.5,7,16.3,6.2,28.7,17.5,38,32.2,2.4,3.9,4.3,8.1,6.4,12.2-.3.2-.7.5-1,.7h0Z"/>
  <path d="M795.9,553.3c3.3-1,5.5-1.6,7.7-2.3,2.2-.7,4.3-1.5,6.4-2.3.3.3.6.7,1,1-2.5,2.6-4.7,5.7-7.6,7.9-11.1,8.4-23.3,14.2-37.6,15.1-9.4.6-18.7,2.3-28.1,2.5-15.6.4-29.4-5.5-41.8-14.7-22.9-16.8-34.8-40.5-40.9-67.5-1.5-6.7-1.4-13.7-2-20.6-1.5-17.6,1.3-34.7,7.2-51.2,5.8-16.4,14.8-31,27.5-42.9,12-11.2,26.2-18.8,42.5-21,7.5-1,15.4.3,23,.6,5.6.2,11.3.2,16.8,1,14.1,2.2,27,7.5,37.9,16.8,4.9,4.2,9.2,9.2,13.8,13.8-.4.5-.7,1-1.1,1.5-8-4-15.9-8-23.9-12,42.4,43.6,45,127.3-.9,174.3Z"/>
  <path d="M844.5,652.5c.5-9,4.8-18.9,12.4-27.2,4.9-5.4,10.7-9.9,16.3-14.6.8-.7,3.1-.8,4-.2,13.2,9.2,23.5,20.7,27.8,36.6.8,2.8,1.1,5.8,1.2,8.7.2,6-3.6,9.1-9.3,7.2-6.4-2.2-12.6-5.1-18.7-8-2.3-1.1-3.6-1.2-6,.2-5.5,3.1-11.4,5.8-17.5,7.7-7.8,2.4-10.1.3-10.1-10.3h0Z"/>
  <path d="M1293,380c-27.4-30.1-61.5-50.5-99.1-66.8,29.3-4.2,86.2,22.4,99.1,66.8Z"/>
  <path d="M1274.7,382.1c-20.9-17.1-43.7-31-69.7-40.9,23.9-8.6,62.4,10.8,69.7,40.9Z"/>
  <path d="M1058.7,359.6c-23.7-14.1-49.1-21.9-76.7-22.3,25.4-10.9,62.5,1,76.7,22.3Z"/>
  <path d="M859.6,352.6c2.1-.9,3.2-1.8,4.2-1.7,7.6,1.1,13.7-3,20.4-5.3,1.3-.5,2.9-.2,4.8-.4.9,5.9-1.8,10.3-4.9,14.5-.8,1.1-1.9,1.9-2.8,2.9-5,5-5.8,5.4-11.3,1.1-3.8-3-6.7-7.1-10.4-11.2h0Z"/>
  <path d="M734.6,329.9c-10.4,6-21.5,7.8-33.1,9.4,3.9-9.4,23.9-15,33.1-9.4Z"/>
  <path d="M677.1,354.8c-6.5,7.9-9.3,18.7-19.4,23.8-4-7.2,4-15.1,19.4-23.8h0Z"/>
  <path d="M830,729.7c.3,5.9,4,11.2-.3,16.6-3-3.6-2.9-11,.3-16.6Z"/>
  <path d="M827.2,535.5c-2,6.4-4.9,8.9-11.1,8,3.4-3,6.7-6.1,10.1-9.1.3.4.7.7,1,1.1h0Z"/>
  <path d="M1096.2,528.3c.6,5.8-3,9.4-8.8,8.9,3.3-3.4,6.1-6.2,8.8-8.9Z"/>
  <path d="M1096,427.8c-3.9-2.6-5.2-6.1-4.6-10.5,4.1,1.3,5.7,4.9,4.6,10.5Z"/>
  <path d="M828.4,392.2c1.7,2.5,3.4,4.9,5.2,7.4-5.4.1-7.1-2.4-6.9-6.5.6-.3,1.1-.6,1.7-.9Z"/>
  <path class="st0" d="M936.7,359.6c-3.3,3.4-6.2,6.6-9.2,9.9-2.9,3.2-5.7,6.5-8.5,9.8l-2.1,2.5c-.7.8-1.4,1.7-2.1,2.5l-2.1,2.5c-.7.9-1.4,1.7-2.1,2.6-.3.4-.7.8-1.1,1.3-.3.4-.7.9-1,1.3-.7.9-1.4,1.7-2.2,2.6-1.5,1.7-2.9,3.5-4.6,5.2.1-1.2.3-2.3.6-3.5.2-1.1.5-2.3.8-3.4.4-1.1.7-2.2,1.2-3.3.4-1.1.8-2.2,1.4-3.2.5-1,1-2.1,1.6-3.1.5-1,1.2-2,1.8-3,1.2-2,2.7-3.8,4.1-5.7,3-3.6,6.5-6.8,10.4-9.4,1-.7,2-1.3,3-1.8,1-.6,2.1-1.1,3.2-1.6,2.2-.9,4.4-1.7,6.8-2Z"/>
  <path class="st1" d="M561.3,1288.7c-25.9,0-49.2-10-65.5-28.1-15.3-16.9-23.7-39.5-23.7-63.7,0-34.6,12.4-72.8,33.9-104.8,20.2-30,44.6-48.7,63.7-48.7s72.2,9.9,81.8,32.9c2.4,5.8,5,10.2,7.5,14.4,5.4,9,10.4,17.6,10.4,34.3s-1.8,24.6-5.4,32.7c-6.3,14.4-16.8,17.4-24.5,17.4-13,0-26.4-6.7-31.5-9.6-8.4-4.7-18.4-12-18.4-20s2.4-9.9,6.8-19.2c3.3-7.2,7.9-17.1,7.9-21.5s0-.4,0-.5c-10.2,7.7-46.4,47.6-46.4,96.2s9.6,30.9,26.2,30.9,21.6-9.7,29.7-18.1c11-11.4,17.5-15.8,23.4-15.8s11.9,2.2,11.9,16.6-1.8,9.7-3,13.1c1.1,3.1,2.4,8.3,2.4,14.9,0,13.9-29.6,46.6-87.1,46.6Z"/>
  <path d="M569.7,1050.5c22.2,0,67.5,9.8,75.3,28.5,7.8,18.7,17.4,23.8,17.4,46s-5.1,43.1-22.8,43.1-42.9-15.7-42.9-22.6,14.7-30,14.7-40.7-2.7-8.3-7.5-8.3-53.1,45.4-53.1,103.9,15.6,38,33.3,38,26.4-11.6,34.8-20.2c6.9-7.1,14.1-13.7,18.3-13.7s4.8,4.8,4.8,9.5-3.6,13.1-3.6,13.1c0,0,3,5.9,3,14.8s-25.8,39.5-80.1,39.5-82.2-40.4-82.2-84.6c0-73.7,57-146.4,90.5-146.4M569.7,1036.4c-21.7,0-47.8,19.4-69.6,51.8-22.3,33.1-35.1,72.8-35.1,108.7s9.1,50.2,25.5,68.4c17.7,19.6,42.9,30.4,70.8,30.4s55.3-10.2,68.2-18.8c7.2-4.8,13.5-10.4,18.1-16.2,5.3-6.6,7.9-12.9,7.9-18.7s-1-11-2.1-14.7c1.3-3.9,2.7-8.9,2.7-13.2s-.2-7.5-1.7-11.5c-2.8-7.5-9.4-12.1-17.2-12.1s-17.7,6.9-28.4,18c-2.5,2.6-7.6,7.4-13.6,11.3-6.6,4.3-10.1,4.6-11.1,4.6-12.7,0-19.1-8-19.1-23.9,0-24,9.5-45.2,18.1-59.4-.3,1.5-.5,3-.5,4.5,0,9.1,7.4,17.9,22,26.2,5.6,3.2,20.3,10.5,35,10.5s24.9-7.7,31-21.7c3.9-9,5.9-21,5.9-35.5s-5.8-28.5-11.4-37.9c-2.5-4.2-4.9-8.2-7.1-13.5-5.2-12.4-19-22.3-41-29.3-15.1-4.8-33.7-7.9-47.3-7.9h0Z"/>
  <path class="st1" d="M806.6,1288.1c-12.6,0-52-14.5-52-35s3.1-19.1,5.1-24.8c.2-.6.5-1.3.7-2-6.7,0-16.5,1.6-19.6,3.5-.2,8.2-2.5,24.6-7.4,33.5-3.7,7-17.2,23.6-29,23.6-23,0-55-11.8-55-31.1s4.7-25.6,8.2-37.6c1.2-4.1,2.7-9.3,2.9-10.8,0-2.7-1-7.4-3.4-12.2-2.6-4.7-2.9-8-2.9-10.7,0-10.5,5.7-16.6,15.8-16.6s1.2,0,1.5,0c0-.3.2-.7.4-1.2v-.3c0,0,.2-.3.2-.3,2.5-6.8,33-94.7,34.6-103.7,0-3.3.2-4.7.5-6.1,0-.6.1-.7.1-1.5,0-8.6,11.6-13.3,17.6-13.3,8.8,0,22.2,5.3,33.3,13.1,13.8,9.7,21.4,21.2,21.4,32.3s-8.6,43.1-14.9,64.5c-1.5,5.1-3.2,10.7-4.2,14.5,0,0,.1,0,.2,0,3.4-.1,9.4-.3,12.2-.8,1.1-2.8,3.1-9.5,4.9-16,2.8-9.8,6.7-23.3,12-39.1,4.8-14.1,8.8-24.9,11.7-32.8,2.9-8,5.5-14.9,5.6-16.7,0-1.6-.4-3.1-.8-4.8-.5-2.1-1-4.5-1-7.3,0-5.9,4.6-12.7,17.6-12.7s33.5,2.2,40.9,8.5c11.4,9.5,22,21.3,22,43.4s-4.1,26-9.8,41.4c-5.1,13.8-11.5,31-18,58.6-5.2,22.5-8.3,37.6-10.4,47.6-3.5,16.9-4.6,22-8.2,28.9-5.8,11.2-17.9,24.3-32.7,24.3Z"/>
  <path d="M822.8,1042.5c4.8,0,32.1,3.3,36.3,6.8,9.3,7.7,19.5,17.8,19.5,38s-13.8,39.5-27.6,98.3c-13.5,58.8-12.9,65-18,74.8-5.1,9.8-15.3,20.5-26.4,20.5s-45-13.7-45-27.9,6.6-24.9,6.6-29.1-2.1-4.8-7.5-4.8-27,1.5-27,9.2-2.4,24.1-6.6,31.5c-3.9,7.4-15.6,19.9-22.8,19.9-22.2,0-48-11.3-48-24.1s11.1-44.3,11.1-48.1-1.2-9.8-4.2-15.7c-1.8-3.3-2.1-5.3-2.1-7.4,0-6.5,2.4-9.5,8.7-9.5s7.5-2.1,8.7-6.5c1.2-3.3,35.1-100.1,35.1-105.7s.6-4.8.6-8,7.2-6.2,10.5-6.2c14.4,0,47.7,18.7,47.7,38.3s-20.1,77.5-20.1,82.9,2.4,3.3,5.4,3.3c7.8-.3,18.3-.3,20.1-2.7,3-3.3,7.5-25.5,18.6-58.2,11.1-32.7,17.7-46.9,17.7-51.7s-1.8-8-1.8-12.2,5.4-5.6,10.5-5.6M822.8,1028.4c-17,0-24.6,9.9-24.6,19.8s.7,6.7,1.2,8.9c.3,1.2.5,2.1.5,2.8-.6,2.3-2.8,8.3-5.1,14.7-2.6,7-6,16.2-10,27.9,1.2-6.1,1.8-11.4,1.8-15.7,0-13.4-8.7-27-24.4-38.1-12.4-8.7-27.1-14.4-37.4-14.4s-11,2.4-13,3.5c-10.5,5.5-11.6,13.6-11.6,16.9s0,.1,0,.2c0,0,0,0,0,.1-.3,1.5-.5,3.2-.6,6.5-2.6,11.2-27.8,84-33.3,99.5-6.9.9-11.1,4.1-13.6,6.8-3.7,4.2-5.6,9.6-5.6,16.6s1.1,9.2,3.7,14c1.7,3.5,2.4,6.6,2.5,8.4-.4,1.9-1.6,6-2.6,9.4-4.6,16-8.4,30.1-8.4,39.6s3.1,19.7,23.7,29.6c11.4,5.5,25.4,8.6,38.4,8.6s30.6-18.6,35.2-27.3c4.8-8.7,7.2-22.6,8-31.8.8-.2,1.7-.4,2.7-.5-1.5,5.2-2.8,11.6-2.8,18.7,0,15,14.1,25.6,25.9,31.8,9.7,5.1,23.7,10.2,33.2,10.2,17.9,0,32.2-15.1,38.9-28.1,4-7.8,5.2-13.6,8.8-30.8,2.1-9.9,5.2-25,10.4-47.4,6.4-27.1,12.7-44.1,17.7-57.7,5.7-15.4,10.2-27.6,10.2-43.8,0-25.1-12.4-38.8-24.6-48.9-3.6-3-9-5.4-24.8-7.9-8-1.3-17-2.3-20.6-2.3h0Z"/>
  <path class="st1" d="M941.8,1289.3c-24.3,0-46.2-8.6-61.7-24.2-14.8-14.9-23-35-23-56.5s19.6-90,31.2-126c3.5-10.8,6.8-21,7.2-23.4v-.2c1.1-5.3,3.6-17.5,15.4-17.5s28.3,9.1,39.4,16.9c9.8,6.9,26.2,20.5,26.2,34.1s-5.5,29.1-14.5,61.6c-6.7,24.2-14.3,51.7-14.3,59.6s.8,8.3,1.2,9.3c2.8-1.8,14.1-13.4,35.9-85.6,14.7-48.2,18.6-73.8,18.6-80.5,0-11.8,10.6-21,19.7-21s28.4,8.2,39.7,15.2c12.3,7.6,27,19.1,27,30.4s-15.2,76-36.9,124.4c-24.5,53.8-63.9,83.5-111.1,83.5Z"/>
  <path d="M1023.1,1042.8c16.5,0,59.7,24.9,59.7,38.6s-15,74-36.3,121.5c-21.6,47.5-57,79.3-104.6,79.3s-77.7-34.5-77.7-73.7,36.6-137.5,38.4-148.2c1.8-8.9,4.2-11.9,8.4-11.9,16.2,0,58.5,27,58.5,44s-28.8,103.7-28.8,121.2,2.1,16.6,8.1,16.6c9.3,0,23.1-25.2,42.9-90.9,14.4-47.2,18.9-74.2,18.9-82.6s7.8-14,12.6-14M1023.1,1028.7c-12.6,0-26.7,12-26.7,28.1s-3.3,29.3-18.3,78.4c-6.5,21.5-12.5,39.3-18,52.9,2.7-10.6,6.1-22.6,8.7-32.3,9.1-33,14.7-53.7,14.7-63.5,0-16-15.9-30.5-29.2-39.9-12.5-8.8-30.5-18.2-43.4-18.2s-12.6,3-16.5,8.4c-2.6,3.6-4.4,8.2-5.7,14.8v.2s0,.2,0,.2c-.5,2.4-3.8,12.6-7,22.4-11.8,36.3-31.6,97.2-31.6,128.2s8.9,45.3,25.1,61.5c16.9,17,40.6,26.3,66.7,26.3,50.1,0,91.9-31.1,117.5-87.6h0s0,0,0,0c21.4-47.8,37.5-110.1,37.5-127.3s-10.2-24-30.4-36.5c-12.7-7.9-30.9-16.3-43.4-16.3h0Z"/>
  <path class="st1" d="M1171.5,1290.7c-24.5,0-41.6-7.3-48.5-10.8-3.8,1.3-10.2,3.1-17.5,3.1s-14.9-3.2-22-8c-9.1-6.3-14.1-14.1-14.1-22.2s10.7-59.9,21.2-100.9c4.6-18,9.8-35.6,13.9-49.7,3.9-13.3,7.9-27,8-29.9,0-6.4-.6-9.6-1.1-12.2-.4-1.8-.7-3.5-.7-5.6,0-7.5,4.9-13.3,11.3-13.3s5.7.6,8.5,1.3c3.8.9,8.2,2,15.8,2s11-.8,17.1-1.7c7.9-1.2,16.9-2.5,29.3-2.5,43.7,0,82,30.2,82,64.7s-17.1,47.4-27.9,57.1c9,6.7,21,19.7,21,42.1,0,53.2-51.4,84.3-88.6,86.3-2.7.3-5.3.3-7.8.3ZM1170.4,1189.7c-1.1,1.9-3,6.9-5.5,19.6v.2c-.4,1.5-.7,3-1.1,4.4-1,4.1-1.9,8.1-2.2,10.9,9.1-2.4,24.7-13.6,24.7-21.3s-4.2-7.9-6.6-9.6c-3.4-2.4-7-3.7-9.2-4.2ZM1189.9,1091.8c-2.9,10.4-5.9,21.9-7.7,29.9,7.8-5.5,16.4-15.8,16.4-22.4s-3.7-7.2-8.7-7.5Z"/>
  <path d="M1192.8,1047.3c39.9,0,75,27.6,75,57.6s-33.3,57.9-33.3,57.9c0,0,26.4,10.4,26.4,41.3,0,48.7-47.7,77.5-82.2,79.3-2.4.3-4.8.3-7.2.3-30,0-48-11.6-48-11.6,0,0-8.1,3.9-18,3.9s-29.1-10.4-29.1-23.2,9.6-54.6,21-99.2c9.9-38.6,22.2-74.8,22.2-81.4,0-11.3-1.8-14-1.8-17.8s2.1-6.2,4.2-6.2c5.7,0,10.5,3.3,24.3,3.3s24.9-4.2,46.5-4.2M1174.2,1132.5c11.4-.6,31.5-19.9,31.5-33.3s-6.9-14.6-16.5-14.6-4.8,1.2-5.7,3.9c-2.7,9.5-9.9,35.9-9.9,42.5s.3,1.5.6,1.5M1159.5,1232.3c10.5-.6,33.9-15.1,33.9-28.8s-17.7-21.1-24.6-21.1-7.8,10.4-10.8,25.5c-1.8,8-3.6,14.8-3.6,19s1.2,5.3,5.1,5.3M1192.8,1033.1c-13,0-22.2,1.4-30.4,2.6-5.8.9-10.9,1.6-16.1,1.6s-10.5-.9-14.1-1.8c-3.1-.7-6.3-1.5-10.2-1.5-10.3,0-18.3,8.9-18.3,20.4s.4,5,.8,7c.5,2.3,1,5,1,10.4-.5,3.5-4.3,16.7-7.8,28.3-4.2,14.2-9.3,31.8-14,49.9-9.7,38-21.4,92.2-21.4,102.7s6.1,20.4,17.2,28c8.3,5.7,18.3,9.3,26,9.3s12.6-1.3,17-2.6c8.8,4.1,25.9,10.3,49,10.3s5.3,0,8.4-.3c21.2-1.2,44.3-10.6,61.8-25.3,21.4-17.8,33.2-42,33.2-68.1s-6-31.2-17.4-42.3c0,0-.1-.1-.2-.2,11.2-11.7,24.5-31.1,24.5-56.7,0-38.2-41.6-71.8-89.1-71.8h0ZM1171.6,1211.7c0-.2,0-.4.1-.6v-.2s0-.2,0-.2c1-5.3,2-9,2.7-11.7.5.3,1.1.7,1.6,1,2.1,1.6,3,2.9,3.1,3.4-.4,1.2-2.5,4.5-7.6,8.3h0Z"/>
  <path class="st1" d="M119.3,1665.7c-30.3,6.6-59.3.8-81.7-16.8-18.6-14.6-30.7-36.1-30.7-55.1,0-9.6,6.9-24.6,20-27.8,9.3-2.4,42.1-.3,51.5,13,2.7,3.8,5.2,8.6,7.6,13.3,2.4,4.5,6.2,11.9,8.5,13.8.6-.2.9-.4,1-.4.2-.3.7-1.7.7-5.3,0-5.6-8.9-15.8-16.8-24.8-13.5-15.5-30.3-34.6-30.3-57.2,0-38.2,43.4-91.7,101.9-104,37-7.8,63.9,11.2,63.9,44.1,0,18.9-8.9,35.7-14.2,44.1-6.7,10.6-17.3,22.6-27,24.6-7.8,1.6-19.3-.9-27.5-3.7-13.3-4.5-17.4-9.3-18.7-12.6,1.8,15.7,13.4,23.7,26.6,32.9,15.5,10.8,33.2,23.3,33.2,50.8,0,16.3-9.1,33.2-25.6,47.8-12.8,11.4-29.5,20.6-42.4,23.4h0ZM143.3,1469c-4.6,4.6-14.9,19.5-16,34.9,1.2-4.9,4.6-10.6,8.4-16.9,2.9-4.8,7.8-12.9,7.8-15.7,0-1.1-.1-1.8-.3-2.3Z"/>
  <path d="M151.1,1421.3c34.2-7.2,56.9,10.5,56.9,38.4,0,27.9-22.9,57.9-34.3,60.3-11.3,2.3-39.9-6.8-39.8-14.2,0-7.4,16.6-26.4,16.6-35.9,0-6.5-3-9.5-7.4-8.5-4.5.9-22.9,23.9-22.9,46.5,0,44.4,60,40.1,60.1,88,0,31.4-39.6,58-60.9,62.7-64.1,14.1-105.4-34.4-105.4-66.6,0-6.2,4.4-16.9,13-19,8.6-2.2,38.1.5,45.6,11,7.4,10.4,14.2,30.8,21,29.3,6.8-1.6,9.8-5.5,9.8-14.7,0-18.8-47.1-47.1-47.1-82,0-35,41.4-84,94.9-95.3M151.1,1407.2c-28.2,5.9-55.3,21.6-76.4,44-20.7,22-32.5,47.1-32.5,68.8,0,14.9,6.3,28.1,14.4,39.7-.4,0-.8-.2-1.2-.2-8.2-1.5-20.6-2.5-28.6-.5-8.4,2.1-16,8.2-21.1,16.9-3.7,6.3-5.8,13.5-5.8,19.8,0,21,12.5,43.7,32.7,59.5,23.8,18.6,54.5,24.8,86.7,17.7,14.4-3.2,32.2-12.9,46.3-25.4,18.5-16.3,28.7-35.5,28.7-54.3,0-30.6-19.7-44.6-35.5-55.6-2.2-1.5-4.3-3-6.3-4.5,6.3,1.4,14.4,2.5,21.2,1.1,5.9-1.2,12.2-4.9,18.6-11,5-4.7,9.9-10.8,14.2-17.6,5.8-9.2,15.6-27.6,15.6-48.5,0-17.8-7.2-32.8-20.3-42-12.9-9.2-30.9-12-50.6-7.8h0Z"/>
  <path class="st1" d="M417.5,1621.2c-15.3,1.9-52.1-3.6-52.1-30.1,0-8.5,3.2-27.7,6.9-47.1-2.4,5-4.9,10.2-7.6,15.8-7.6,15.9-12.3,26.8-15.8,34.8-5.9,13.6-8.3,19.3-14.8,24.5-8.7,7-15.9,11.7-24.8,13.1-9.1,1.4-34-.3-34-19.5,0-.4.8-28.6,1.7-62-3.1,9-6.2,18.3-9,26.7-.1.4-.3.8-.4,1.2-11,34.2-19,58.9-35.2,61.9-5.8,1.1-19.9,2.3-32.8,1.6-12-.7-27.9-2.8-27.9-14.9,0-6.2,2.9-10.4,5.7-14.4,1.4-2.1,3.1-4.4,4.7-7.6,3.1-6.2,9.2-25,15.6-44.8,5.4-16.5,11.5-35.3,17.6-52.5,24.5-69.3,42.4-114.9,65.7-118.9,10.8-1.9,31.6.8,42,12.4,1.8,1.9,3.8,3.4,5.9,5,6.9,5.2,14.8,11.1,14.8,31.5,0,10-.8,29.5-1.6,47,6.5-14.4,14.5-31.8,22.7-48.7,18.7-39.1,25.1-46.4,33.7-54.3.3-.4.7-1.1,1-1.7,7.9-13.8,14.8-14.7,18.1-15.1,20.8-2.8,59.1,13,59.1,46.2,0,16-4.2,34.5-8.7,54.1-4.2,18.4-8.6,37.4-10.3,57.1-2.3,25.8-4.7,42.9-6.2,54.2-.8,6-1.4,10.4-1.5,12.7-.5,11.2-20,30.3-32.6,32Z"/>
  <path d="M417.8,1372c17.1-2.3,52,10.8,52,39.9,0,29.4-15.3,68.9-18.9,110.7-3.6,40.5-7.5,60-7.8,67.2-.3,7.2-16.5,23.1-25.5,24.3-12.9,1.6-45-3.3-45-24.1,0-19.3,18-100,18-100,0,0-11.7,25.4-32.1,67.3-20.1,41.9-20.4,50-28.2,56.3-7.8,6.3-13.8,10.2-21,11.4-6.9,1.1-26.9-.3-26.9-13.6,0-.6,3-105.6,3-105.6,0,0-14.1,40.7-23.9,70.4-9.6,29.6-17.6,55.1-29,57.2-11.4,2-53.7,4.4-53.6-7.7,0-5.9,4.5-8.6,9.5-18.2,6-11.9,19.7-59.1,33.7-98.3,18.5-52.2,39.1-109.7,59.1-113.1,9.3-1.6,27.8,1,36.5,10.6,8.4,9,19.2,9.2,19.2,32.3,0,20.5-3.3,82.2-3.3,82.2,0,0,18.3-42.4,37.8-82.6,19.2-40.2,24.9-45.4,32.1-52,2.4-2.1,5.7-13.2,14.4-14.4M417.8,1357.9c-14.2,1.9-21.1,14.1-24.1,19.3,0,.2-.2.3-.3.5-8.9,8.3-16,16.9-34.6,56.1-2.7,5.6-5.4,11.3-8,16.9.2-5.5.3-10.4.3-14,0-23.5-9.9-31-17.1-36.4-2-1.5-3.7-2.8-5.2-4.4-12-13.3-35-16.3-47.5-14.1-19.4,3.3-33,27.5-42.7,48.2-10.5,22.5-20.6,51.1-29.6,76.5-6.2,17.3-12.3,36.1-17.7,52.7-6,18.6-12.3,37.9-15.1,43.6-1.4,2.6-2.7,4.5-4.1,6.5-3.1,4.4-7.3,10.5-7.3,19.2,0,19,25,20.2,33.2,20.7,12.7.7,27.3-.3,34.5-1.7,16.2-3,24.5-21.1,27.6-28,3-6.6,5.9-14.4,8.7-22.8-.5,16.7-.5,16.9-.5,17.1,0,11.2,6.9,19.8,18.8,23.5,8.3,2.6,17.1,2.6,22.2,1.8,11.8-1.9,21-8.7,28.6-14.8,8.2-6.6,11.3-13.7,17.4-27.8.9-2.2,2-4.6,3.1-7.2,0,1,0,2,0,2.9,0,14.5,9,25.7,25.3,31.8,11.9,4.5,25.6,5.4,33.8,4.3,10.3-1.4,20.2-9.6,25.1-14.4,6.4-6.2,14.1-15.5,14.5-25.2,0-1.9.7-6.4,1.5-12,1.6-11.4,4-28.6,6.3-54.5,1.7-19.2,6-38,10.1-56.1,4.6-20,8.9-38.9,8.9-55.7,0-17.4-9-32.5-25.4-42.5-12.4-7.6-28.5-11.5-40.8-9.9h0Z"/>
  <path class="st1" d="M545.9,1601.3c-24.4,2.3-46.4-4-62-17.8-14.9-13.2-23.1-32.3-23.1-53.9,0-29.9,19.6-92.4,31.3-129.6,3.5-11.2,6.9-21.8,7.3-24.2,0,0,0-.2,0-.2,1.1-5.4,3.6-17.9,15.4-19.2,11.4-1.2,28.4,6.3,39.5,13.1,9.8,6,26.3,18.2,26.3,31.8,0,8.7-5.5,29.5-14.5,62.8-6.7,24.8-14.4,53-14.4,60.9,0,5.8.8,8.2,1.2,9.2,2.8-2.1,14.2-14.7,36.1-88.7,14.8-49.4,18.7-75.2,18.7-82,0-11.8,10.6-21.8,19.8-22.5,11.2-.8,28.5,6.3,40,12.6,12.4,6.9,27.2,17.6,27.2,28.9,0,14.8-15.3,76.7-37.1,126.5-24.6,55.4-64.3,87.7-111.7,92.2h0Z"/>
  <path d="M627.6,1348.2c16.6-1.3,60.1,21.2,60.1,34.9,0,13.7-15.1,74.7-36.5,123.6-21.7,48.9-57.3,83.1-105.2,87.6-47.9,4.5-77.9-26.2-77.9-65.4,0-39.3,36.7-141.7,38.5-152.5,1.8-9.1,4.2-12.3,8.4-12.8,16.2-1.8,58.7,21.4,58.7,38.4,0,16.9-28.9,106.2-28.9,123.8,0,10.1,2.1,16.4,8.1,15.9,9.3-.9,23.2-27.4,43.1-94.6,14.5-48.4,19-75.7,19-84,0-8.3,7.8-14.5,12.7-14.9M627.6,1334c-12.7.9-26.9,14-26.9,30.1,0,5.1-3.3,29.5-18.4,79.9-6.5,22.1-12.6,40.3-18.1,54.5,2.8-10.9,6.1-23.2,8.8-33,9.2-33.7,14.8-54.9,14.8-64.7,0-16-15.9-29.2-29.3-37.4-12.6-7.7-30.6-15.3-43.6-14-6.7.7-12.6,4.3-16.6,10.2-2.6,3.9-4.4,8.6-5.7,15.4,0,0,0,.2,0,.2,0,0,0,.1,0,.2-.5,2.4-3.8,13-7,23.2-11.9,37.6-31.7,100.8-31.7,131.9,0,23.4,8.9,44.2,25.1,58.6,16.9,15,40.7,21.8,67,19.3,50.4-4.7,92.4-38.7,118.2-96.7,0,0,0,0,0,0,0,0,0,0,0,0,21.5-49.1,37.8-112.2,37.8-129.3,0-11.7-10.3-23.5-30.6-34.8-12.8-7.1-31.1-14.4-43.7-13.5h0Z"/>
  <path class="st1" d="M751.3,1588.1c-20.8.7-37.5-13.9-42.1-18.3-8.1-3-41.1-17.2-41.1-55.8,0-36.6,11.7-78.7,31.3-112.4,22.7-39.1,52.9-61.3,84.9-62.1,28.3-.7,41.2,4.6,46.2,7.5,6,.5,15.3,2.8,23.8,7,16.7,8.3,20.3,18.6,20.3,25.8,0,10-3,27.8-7.1,42.3-6.4,22.2-13.7,32.6-23.2,32.7-7.3,0-19.2-2.4-29.5-6.2-14.6-5.3-21.7-11.4-21.7-18.7,0-4.8.8-15.4,6.5-28.3-5.7,6.4-13.6,18-22.7,36.8-12.6,26.1-21.5,54.2-21.5,68,0,3.4.6,14.3,8,14.1,7.5-.2,13.7-6.9,16.8-10.9,5.1-6.7,7.5-13.7,7.5-16.3,0-1.1-.9-1.9-4.5-4-3.8-2.2-9.7-5.6-9.7-12.8,0-8.5,6.2-13.4,11-15.3,3.5-3.1,10.5-6,24.5-6.2,20.3-.4,48.5,8.7,48.5,26.1,0,15.7-.3,20.4-2,28.4-2.7,13-12.2,32.7-30.7,49.5-14,12.8-38.2,28.1-73.3,29.3h0Z"/>
  <path d="M784.3,1346.5c34.1-.8,43.8,7.5,43.8,7.5,8.8-.2,39.3,8.6,39.3,25.8,0,17.2-10.6,67.7-23.3,67.8-13,0-44.1-9.5-44.1-18,0-8.6,2.7-22.9,12.7-37.7,0-1.2-.9-4.1-5.1-4.1-19.9.3-59.5,86.2-59.5,118.7,0,13.1,5.7,21.2,15.1,20.9,17.8-.6,31.4-24.6,31.4-34.4,0-9.8-14.2-9.8-14.2-16.9,0-7.1,7.9-9.1,7.9-9.1,0,0,2.4-4.8,20.5-5.2,18.1-.4,41.4,7.8,41.4,19.1,0,15.1-.3,19.6-1.8,27-5.4,26.2-38.1,71.1-97,73.1-21.1.7-38.1-17.5-38.1-17.5,0,0-38-11.5-38-50,0-68.8,44.4-165.3,109-167M784.3,1332.4c-34.6.9-66.9,24.4-91,65.8-20.2,34.8-32.3,78.3-32.3,116.1,0,20,8.3,37.2,23.9,49.8,7.9,6.3,15.7,10,20.1,11.7,6.4,6,23.9,20.1,46.3,19.3,37.4-1.3,63.1-17.6,78.1-31.2,16.8-15.2,29.1-35.1,32.9-53.2,0,0,0,0,0,0s0,0,0,0c1.8-8.9,2.1-14.7,2.1-29.8,0-5-1.8-13.5-11.9-21,5-2.4,9.3-6.9,13-13.7,3.1-5.6,6-13.1,8.6-22.2,4.3-15,7.4-33.6,7.4-44.2,0-17.4-15.1-27.6-24.2-32.1-7.8-3.9-17.3-6.8-24.8-7.6-6.9-3.6-21.3-8.4-48.4-7.7t0,0h0ZM775.5,1458c1.7-4.1,3.5-8.2,5.4-12.3,1.9-4,3.7-7.7,5.4-11.1,1.6,6.1,6.4,10.7,11.6,14-7.5,1.1-13.3,3.2-17.3,6.4-1.7.8-3.4,1.8-5,3.1h0ZM763.6,1513.3c-.5-.9-1.3-3.2-1.3-7.2,0-5.7,1.7-14.2,4.6-24,2.3,7.4,8.8,11.2,12.3,13.3.2,0,.3.2.5.3-.9,2.6-2.8,6.5-5.8,10.2-3.5,4.4-7.3,7.1-10.3,7.5h0Z"/>
  <path class="st1" d="M935.1,1586.4c-20.9-.4-37.6-15.8-42.2-20.5-8.1-3.4-41.1-19.3-41.1-57.9,0-36.6,11.7-78.1,31.3-110.8,22.8-37.9,52.9-58.5,84.9-57.6,28.3.8,41.2,6.8,46.2,9.9,6,.8,15.3,3.6,23.8,8.3,16.7,9.2,20.2,19.7,20.2,26.8,0,10-3,27.6-7.1,41.9-6.3,21.9-13.7,31.9-23.2,31.5-7.3-.3-19.2-3.4-29.5-7.8-14.6-6.1-21.7-12.6-21.7-19.9,0-4.8.8-15.4,6.5-27.9-5.7,6.1-13.6,17.3-22.7,35.6-12.6,25.5-21.5,53-21.5,66.9,0,3.4.6,14.3,8,14.5,7.5.2,13.7-6.2,16.8-10,5.1-6.4,7.5-13.3,7.5-15.9,0-1.1-.9-1.9-4.5-4.2-3.8-2.4-9.7-6.1-9.7-13.4,0-8.5,6.2-13,11-14.8,3.5-2.9,10.5-5.4,24.5-5,20.3.6,48.5,11.2,48.5,28.6,0,15.7-.3,20.4-2,28.3-2.7,12.8-12.1,32-30.6,47.9-14,12-38.2,26.1-73.3,25.5h0Z"/>
  <path d="M968,1346.6c34.1.9,43.8,9.8,43.8,9.7,8.8.3,39.3,10.6,39.3,27.9,0,17.2-10.6,67.2-23.3,66.6-13-.6-44.1-11.8-44.1-20.3,0-8.6,2.7-22.8,12.7-37,0-1.2-.9-4.2-5.1-4.3-19.9-.7-59.5,83.1-59.5,115.6,0,13.1,5.7,21.5,15.1,21.7,17.8.4,31.4-23,31.4-32.8,0-9.8-14.2-10.5-14.2-17.6,0-7.1,7.9-8.7,7.9-8.7,0,0,2.4-4.7,20.5-4.1,18.1.6,41.4,9.9,41.4,21.2,0,15.1-.3,19.6-1.8,26.9-5.4,26-38,69.1-97,68-21.2-.4-38.1-19.4-38.1-19.4,0,0-38.1-13.5-38.1-52,0-68.8,44.4-163,109.1-161.3M968,1332.4c-34.6-.9-67,20.9-91,61.1-20.2,33.7-32.3,76.6-32.3,114.4,0,20,8.3,37.6,24,51,7.9,6.8,15.7,10.8,20.1,12.8,6.4,6.4,23.9,21.3,46.3,21.7,37.4.6,63.1-14.3,78.1-27.1,16.8-14.4,29.1-33.5,32.8-51.5,0,0,0,0,0,0,0,0,0,0,0,0,1.8-8.9,2.1-14.6,2.1-29.7,0-5-1.8-13.6-11.8-21.6,5-2.1,9.3-6.5,13-13,3.1-5.5,6-12.8,8.6-21.8,4.3-14.8,7.4-33.2,7.4-43.8,0-17.4-15.1-28.4-24.2-33.4-7.8-4.3-17.3-7.7-24.8-8.9-6.9-3.9-21.2-9.5-48.4-10.2h0ZM959.3,1457.5c1.7-4,3.5-8,5.4-12,1.9-3.9,3.7-7.5,5.4-10.8,1.6,6.2,6.4,11,11.6,14.6-7.5.7-13.3,2.6-17.3,5.5-1.7.7-3.4,1.7-5,2.8h0ZM947.3,1512.2c-.5-.9-1.3-3.2-1.3-7.3,0-5.7,1.7-14.1,4.6-23.8,2.3,7.6,8.8,11.7,12.3,13.9.2.1.3.2.5.3-.9,2.5-2.8,6.3-5.8,9.9-3.5,4.2-7.3,6.7-10.3,6.9h0Z"/>
  <path class="st1" d="M1099.1,1593.8c-8.6-.6-23.1-7.2-35-16.1-15.7-11.7-24.3-25.1-24.3-37.9,0-25.6,10.9-56.7,29.1-108,8.5-24,24.2-68.6,24.4-74.4,0-7.3,6.4-14.7,15.9-14.1,30.6,2,66.8,37.1,66.8,64.1,0,15.4-5.6,29.3-12.2,45.3-4.3,10.6-9.2,22.5-13.1,36.7-5,18.4-8.2,30.9-8.9,37.2,2,.3,4.2.6,6.6,1,5.6.9,11.9,2,16.9,2.4,11.3.9,32.4,11.2,32.4,27.1,0,14.4-1.8,25.7-24.9,30.7-22.9,5-60.7,6.6-73.6,5.8h0Z"/>
  <path d="M1109,1350.4c26,1.7,59.7,32.7,59.7,56.4,0,23.8-15.1,44.5-25,80.3-6.3,23.3-9.3,35.5-9.3,41.5,0,3.3.9,4.5,2.7,4.7,5.4.4,18.7,3.2,28,4,9,.7,25.3,9,25.3,19.4,0,11.9-.3,20.1-19.9,24.4-21.4,4.7-58.5,6.5-71.5,5.7-13-.9-52.2-22.6-52.2-46.6,0-24,10.3-53.6,28.7-105.7,18.4-52.1,24.7-71.6,24.7-76.6,0-5,5.1-7.7,8.8-7.4M1109,1336.3c-5.1-.3-10.4,1.2-14.6,4.3-5.2,3.8-8.3,9.7-8.4,16.1-.9,7.2-16.5,51.3-24,72.5-18.4,52.1-29.5,83.6-29.5,110.4,0,15.2,9.7,30.7,27.4,43.8,11,8.2,27.4,16.9,39.1,17.6,15.2.9,53.6-1.2,75.6-6,12.7-2.8,20.8-7.5,25.4-15,4.5-7.3,4.5-15.5,4.5-22,0-19.4-23-33.5-39.5-34.8-4.3-.4-10-1.3-15.1-2.1,1.9-8.5,5.2-20.7,7.5-29.1,3.9-13.8,8.6-25.6,12.9-36,6.8-16.7,12.6-31.1,12.6-47.8,0-15.3-9.1-32.8-25-47.7-15-14.1-33.2-23.1-48.9-24.1t0,0h0Z"/>
  <path class="st1" d="M1268.1,1604.5c-15.7-1.8-25.3-6.7-29.2-9.2-5.2-.9-20.3-4.1-31.9-12.1-11.4-7.8-18.9-14-18.9-28.9,0-16.9,15.1-67.4,28.5-111.9,8-26.5,17-56.6,17-61.6,0-3.3-.5-5.7-.9-7.9-.3-1.7-.6-3.3-.6-5.1,0-5.5,1.9-14.6,14.3-13.3,2.9.3,6,1.5,9.9,3.1,5.4,2.2,12.9,5.1,23,6.8,11.1,1.9,20.8,3.3,29.7,4.4,17.3,2.1,30.4,3,39,3.6,4.8.3,8.2.6,10.8.9,16.2,2.2,27.2,35.7,27.2,46.3,0,11.4-5,18.1-14.9,20.1-7.6,1.5-17.2.2-29.3-1.4-4.6-.6-8.1-1.2-11-1.6-2.1-.3-3.8-.6-5.5-.8-11.1-1.4-13.4.1-14.2,2-3.2,7-6.8,16.7-8.5,22.7.9.2,1.8.4,2.8.6,6.5,1.3,15.4,3.1,19.3,3.6,15.3,2,24.8,11.1,24.8,23.7,0,19.5-14.9,37-27.2,38.6-3.5.4-8,.2-13.3-.2-5.2-.3-15.9-.9-18.6.7-.8,3.4-1.8,6.2-2.7,8.5,2.8.1,6.3.1,9.9.2,6.5,0,13.2.1,18.8.8,12.4,1.6,25.9,5.3,32,20.6,1,2.4,2,4.6,3,6.7,3.4,7.2,6.6,14.1,6.6,23.8,0,4.5-2.1,12.6-16,16.1-6.8,1.7-15.6,2.1-23.5,1.1-5.4-.7-12.4-.5-19.8-.3-9.3.2-19.9.6-30.4-.6Z"/>
  <path d="M1246.5,1361.7c5.1.5,15,6.9,32.5,9.8,11.1,1.9,21,3.4,30.1,4.5,26.4,3.3,42.9,3.5,49.8,4.5,9.6,1.3,20.1,28.7,20.1,38.2,0,17.8-14.7,15.7-37.2,12.6-7.8-1-12.3-1.9-16.5-2.5-9.9-1.3-17.7-1-20.7,5.4-3.6,7.9-10.2,25.2-10.2,30.5,0,.9.3,1.5.9,1.6,3,.3,22.5,4.5,29.4,5.4,7.2.9,17.7,4.4,17.7,15.7,0,16-12.6,31.3-21.9,32.5-9.3,1.2-34.9-4.3-37,4.7-1.5,7.2-4.5,11.7-4.5,14.6,0,3,3.3,3.4,5.1,3.6,7.5.9,22.5,0,32.2,1.2,12.6,1.6,21.3,4.8,25.5,15.5,4.5,10.7,9,17,9,27.6,0,10.7-19.8,12.8-32.4,11.2-12.9-1.6-31.9,1.1-50.2-.9-18.3-2-27.1-8.9-27.1-8.9,0,0-17.8-2.4-30.4-11.1-10.5-7.2-15.4-11.2-15.4-22.5,0-27.4,45.5-159.3,45.5-173.5,0-6.5-1.5-10.3-1.5-12.9,0-5.6,1.8-7.5,7.2-7M1246.5,1347.5c-6.8-.7-12.2.9-16.1,4.7-5.3,5.2-5.3,12.6-5.3,15,0,2.4.4,4.5.8,6.4.4,1.9.7,3.8.7,6.3-.6,6.1-9.5,35.9-16.7,59.9-16.8,56.2-28.8,97.3-28.8,113.9,0,20,12.4,28.4,22.3,35.3,12.1,8.2,26.8,11.8,33.6,13.1,5.3,3.1,15.6,7.8,31.1,9.5,11,1.2,21.9.9,31.4.7,7.1-.2,13.9-.3,18.8.3,8.8,1.1,18.5.6,26.1-1.3,17.9-4.5,20.5-15.7,20.5-22.1,0-11.4-3.7-19.4-7.3-27.1-.9-2-1.9-4.1-2.9-6.3-5.5-13.9-16-20.1-25.1-23.1,6.2-2.4,12.2-7.3,17.1-14,6.3-8.7,9.8-19.1,9.8-29.2,0-10.1-4.9-19.3-13.5-25.1-5.1-3.5-11.3-5.7-18.4-6.6-2.6-.3-7.7-1.3-12.7-2.3,1.5-4.3,3.4-9,5.1-12.8,1.1-.1,3.4-.2,8.2.4,1.6.2,3.3.5,5.3.8,2.9.5,6.5,1,11.2,1.7,12.3,1.6,22.9,3.1,31.6,1.4,12.7-2.5,19.7-11.8,19.7-26.1,0-8.6-4.3-20.9-7.9-28.7-7.3-15.6-16.1-24.3-26.3-25.7-2.8-.4-6.4-.6-11.3-1-8.6-.6-21.5-1.4-38.6-3.5-8.7-1.1-18.3-2.5-29.3-4.4-9.3-1.6-16-4.2-21.4-6.4-4.2-1.7-7.9-3.1-11.8-3.6h0Z"/>
  <path class="st1" d="M1516.3,1646.4c-33.3-6.1-51.9-34.9-68.3-60.3-3.5-5.4-6.9-10.6-10.3-15.6,0,.3,0,.5-.1.8-1.1,9.1-3.3,20-6.4,32.3-2.6,10.8-22.4,17.1-33.5,15.4-11.7-1.8-41.3-15.6-41.3-38.2,0-18.3,12.8-58.6,29-109.4.2-.7.5-1.4.7-2.1,15.9-50.1,15.9-60.3,15.9-64.2,0-1.2-.4-3-.8-4.7-.5-2.1-1-4.4-1-6.6,0-5.4,2.3-14.2,17.5-11.8,7.3,1.1,15.6,1.4,25.2,1.8,12.8.5,27.3,1.1,44.2,4.1,24.8,4.4,47.4,16.4,63.6,33.7,17.8,19,27.2,42.9,27.2,69,0,27.6-14,48.2-40.5,60.1-11.9,5.4-23.7,7.8-31.3,9,6.6,12.1,20.8,28.5,30.5,30.4,2.4.5,4.4.6,6.6.7,2.4.2,5.1.3,8.3,1,7.8,1.5,13,10.9,13,16.5,0,9.1-7.1,16.2-10,18.7-2.7,5.4-13.7,24.1-38.1,19.5h0ZM1491.8,1442.4c-5.6-1-13,3.1-13.3,5.1,0,.2,0,.5,0,.7,0,.2-.2.4-.2.6-8,22.2-16.6,47.2-18.2,53.6,4.1-.3,13-5.1,22.3-16.4,9.9-11.9,16-25.8,16-36.3,0-4.1-.7-5.3-.9-5.5,0-.1-1.1-1.2-5.5-2h0Z"/>
  <path d="M1487,1395c45.7,8,83.8,43.5,83.8,94.2,0,60.9-74.5,64-74.5,64.2,3.9,13.8,24.5,40.6,40.3,43.7,5.7,1.1,9.2.6,14.9,1.7,3.3.6,6,5.6,6,8,0,8-8.9,14.9-8.9,14.9,0,0-8.9,22-32.2,17.6-39.4-7.2-55.6-49.9-79.2-80.5,0,0-5.1.7-6.6,10.5-1.2,9.9-3.6,21.1-6.3,31.7-1.5,6.6-17.7,12.4-26.7,11-9-1.4-34.2-12.7-34.2-30.2,0-17.5,13.2-58.8,29.4-109.5,16.2-51,16.2-61.7,16.2-66.2,0-3.9-1.8-8.3-1.8-11.3,0-5.9,4.2-6.8,10.5-5.8,17.7,2.8,40.1.7,69.4,5.9M1458.9,1509.5c15.6,2.6,46.3-31.7,46.3-58.4,0-9.2-3-13.9-13.4-15.8-7.5-1.3-19.4,3.1-20.3,10.1,0,0-18.8,52-18.8,56.5,0,4.5,2.1,6.9,6.3,7.6M1487,1380.8c-17.4-3.1-32.1-3.7-45.1-4.2-9.4-.4-17.5-.6-24.3-1.7-3.9-.6-9.7-1.1-14.9,1.2-6.2,2.8-9.7,8.9-9.7,16.6,0,3.1.6,5.8,1.2,8.2.2,1,.6,2.5.6,3,0,8.6-5.2,29.5-15.6,62.2-.2.7-.5,1.4-.7,2.1-17,53.4-29.3,92.1-29.3,111.5,0,12.8,7.5,25,21,34.5,9.7,6.8,20.7,10.8,27.3,11.8,9.6,1.4,19.2-1.8,22.9-3.2,6.8-2.7,15.4-7.7,17.5-16.5,1.6-6.2,2.9-12.1,4-17.5.1.2.2.3.3.5,8.6,13.2,17.4,26.9,28.6,38.4,13.8,14.2,28.6,22.6,45.4,25.7,13.7,2.5,26-.9,35.4-10,4.3-4.2,7.1-8.6,8.6-11.4,3.9-3.6,11.2-11.6,11.2-22.4,0-9.9-8.5-22.7-20-24.9-3.7-.7-6.7-.9-9.2-1.1-2.1-.1-3.7-.2-5.7-.6-1.9-.4-7.3-3.3-14.8-12-1.7-1.9-3.2-3.9-4.6-5.8,7.1-1.5,15.5-3.9,24-7.7,28.6-12.8,43.7-35.3,43.7-65.4,0-28.2-10.2-54.2-29.6-74.9-17.5-18.7-41.7-31.7-68.2-36.3h0ZM1485.1,1451.3c1.3-1,4.2-1.9,6-1.9-.3,8.4-5.3,19.8-13.3,29.9-1.5,1.9-3,3.6-4.4,5.2,3.3-9.7,7.4-21.3,11.3-32.1.1-.3.2-.6.3-1h0Z"/>
  <path class="st1" d="M1638.3,1666.8c-25.7-5.7-50-21-68.3-43.2-17.6-21.4-27.7-47.3-27.7-71.4,0-4,.3-8.2,2.4-11.5,1.8-2.9,5.7-5.9,13.6-4.4,7.3,1.4,43.8,14.9,50.8,33.5,1.9,5,2.9,10.9,3.9,16.5.8,4.8,2.3,13.6,4.1,15.8,1.5.3,4.7.3,4.7-12.4,0-14.9-9.9-30.2-20.3-46.4-11.9-18.5-24.3-37.5-24.3-58.9,0-18.2,7.9-35.9,21.7-48.3,14.4-13,33.2-18.2,51.6-14,16,3.6,28.1,8.8,36.3,15.2,3.2,2.6,5.4,5,6.8,7.1,21.4,8,50.9,32.5,50.9,51,0,7.4-1.7,19.7-4.2,31.3-4.7,21.4-8.6,24.1-10.1,25.2-8.7,6.3-23.3,8.6-35.5,5.7-13.2-3.2-35.1-23-35.1-38.7,0-8.9,6.1-28.7,9.4-38.6-6.5,0-16.2,5.1-16.2,22.8,0,21.8,16.7,41.4,32.8,60.5,15.2,18,30.9,36.9,30.9,56.7,0,18.8-9,33.6-25.5,41.8-14.4,7.2-33.6,8.8-52.6,4.6h0Z"/>
  <path d="M1650.5,1429.3c35.6,8.1,39.1,21,39.1,20.9,19.5,5.8,47.9,29.2,47.9,43.5,0,14.3-6.8,48.2-12.1,51.9-8,5.7-21,7.3-30.8,5-10.4-2.5-28.1-19.4-28.1-30.1,0-10.7,11-42,11-42,0,0-1.5-3.9-5.9-4.9-10.4-2.4-25.8,4.2-25.8,28,0,46.5,63.7,80.9,63.7,117.1,0,35.9-36.7,48.7-71.1,41.1-50.2-11.1-88.9-60.4-88.9-106.1,0-6.5.9-11.7,8.9-10.1,9.5,1.8,39.6,15.1,44.3,27.8,4.8,12.6,3.6,35.8,14.3,38.1,7.4,1.6,11.9-3.1,11.9-17.9,0-35.1-44.6-68.1-44.6-105.4,0-33.6,31-64.7,66.3-56.7M1650.5,1415.1c-20.4-4.6-41,1-56.8,15.2-14.9,13.5-23.5,32.8-23.5,52.7,0,23.6,13.5,44.6,25.5,63.1-2.7-1.8-5.6-3.6-8.9-5.4-10-5.5-21.4-10.1-28.5-11.5-11.9-2.3-17.4,3.2-19.7,6.8-2.9,4.6-3.3,10-3.3,14.8,0,25.9,10.9,53.8,29.7,76.7,19.6,23.8,45.6,40.1,73.2,46.3,20.5,4.5,41.1,2.8,56.7-5,18.3-9.1,28.4-25.6,28.4-46.8,0-20.9-14-39.5-28.8-57.3,0,0,0,0,0,0,14,3.3,30.2.8,40.3-6.4,2.3-1.6,7-5,12.1-28.3,2.6-12,4.4-24.9,4.4-32.7,0-11.7-8.2-25.5-23.2-38.7-9.7-8.6-21-15.7-31.3-20-1.8-2.1-4-4.4-6.8-6.6-9.2-7.3-22.5-13-39.6-16.9t0,0ZM1613.8,1596.4s0,0,0,0h0Z"/>
  <path d="M1695.4,1620.3c1,5.4.3,11-1.6,16.4-1.9,5.3-5.4,10.3-10,13.9-1.1.9-2.4,1.7-3.6,2.4l-1.9,1c-.6.3-1.3.6-2,.8-2.7,1-5.5,1.7-8.3,2-5.6.6-11.2-.1-16.3-2.1,5.4-.8,10.5-1.6,15.3-3.1,1.2-.3,2.3-.8,3.5-1.2.6-.2,1.1-.5,1.7-.7l.8-.3.8-.4c2.2-1,4.2-2.3,6-3.7,3.7-2.9,6.8-6.6,9.4-10.8,2.5-4.3,4.6-9,6.3-14.1h0Z"/>
  <path d="M625.9,1525c-2.3,7.7-6.1,14.8-10.5,21.5-4.5,6.7-9.7,12.9-15.7,18.3-1.5,1.4-3,2.7-4.6,3.9-1.6,1.2-3.2,2.5-4.9,3.6-1.7,1.2-3.4,2.2-5.1,3.3-1.8,1-3.5,2-5.4,2.8-7.3,3.5-15.2,5.8-23.1,6.2,7.3-3.2,14.2-6.6,20.6-10.8,1.6-1,3.2-2.1,4.7-3.2,1.5-1.2,3.1-2.2,4.6-3.4,3-2.3,5.9-4.8,8.7-7.4,5.6-5.1,10.9-10.7,16-16.5,5.1-5.8,9.9-11.9,14.6-18.3Z"/>
  <path d="M169.2,1432.6c-4.5,1-8.8,1.8-13,2.8-4.2.9-8.3,2-12.4,3.2l-1.5.4c-.5.1-1,.3-1.5.5l-3,1c-2,.8-4,1.4-6,2.2-4.1,1.4-7.9,3.3-12.3,4.9,2.6-3.8,6-7.1,9.9-9.6,1.9-1.4,4-2.4,6.1-3.4,2.1-.9,4.3-1.8,6.5-2.4,4.4-1.3,9.1-2,13.7-2,4.6,0,9.2.6,13.6,2.4Z"/>
  <path d="M1249.9,1213.5c-.1,1.8-.4,3.6-.8,5.3-.4,1.8-.8,3.5-1.4,5.2-1.1,3.4-2.4,6.8-4,10-3.2,6.5-7.4,12.5-12.4,17.8-2.5,2.6-5.2,5.1-8.1,7.3-2.9,2.2-6,4.2-9.2,5.9-6.4,3.4-13.4,5.6-20.5,6.4,6.3-3.4,12.3-6.8,17.8-10.8,2.7-2,5.4-4.1,7.9-6.3,2.5-2.2,5-4.6,7.3-7,4.6-4.9,8.9-10.2,12.7-15.9,1.9-2.8,3.8-5.7,5.6-8.7,1.8-3,3.5-6,5.1-9.2h0Z"/>
  <path d="M567.3,1058.3c-4,4.2-8,8.1-11.9,12-3.9,3.9-7.7,7.9-11.5,11.9-1.9,2-3.7,4.1-5.5,6.1-.9,1-1.8,2.1-2.7,3.1l-1.4,1.6-1.3,1.6c-.9,1.1-1.8,2.1-2.7,3.2-.8,1.1-1.7,2.2-2.6,3.3l-1.4,1.6c-.4.6-.8,1.1-1.3,1.7-.9,1.1-1.8,2.2-2.8,3.3.3-1.4.7-2.8,1.1-4.2.2-.7.4-1.4.6-2.1.3-.7.5-1.3.8-2,.6-1.3,1.1-2.7,1.7-4,.7-1.3,1.4-2.5,2.1-3.8l1.1-1.9,1.2-1.8c.8-1.2,1.6-2.4,2.5-3.6l2.7-3.4c.9-1.1,1.9-2.2,2.9-3.2,3.9-4.2,8.3-8.1,13-11.4,4.7-3.3,9.7-6.2,15.3-8.1h0Z"/>
  <path d="M1237.2,1450c-.8,7.5-2.2,14.8-3.8,22-1.6,7.2-3.5,14.4-5.6,21.5-2.1,7.1-4.4,14.1-7,21.1-2.6,7-5.4,13.9-8.8,20.6.8-7.5,2.2-14.8,3.8-22,1.6-7.2,3.5-14.4,5.6-21.5,2.1-7.1,4.4-14.1,7-21.1,2.6-7,5.4-13.9,8.8-20.6h0Z"/>
  <path d="M1557.9,1504.4c0,1.5-.4,2.9-.7,4.3-.3,1.4-.8,2.8-1.3,4.2-1,2.7-2.3,5.4-3.8,7.9-3,5.1-6.9,9.6-11.5,13.4-4.6,3.8-9.8,6.7-15.4,8.7-5.6,1.9-11.4,2.8-17.2,2.4,5.3-2.3,10.4-4.5,15.1-7.2,4.7-2.6,9.2-5.6,13.3-9,4.1-3.4,7.9-7.1,11.5-11.3,3.5-4.1,6.9-8.5,10-13.4h0Z"/>
  <path d="M902.5,1409.6c-3.3,6.8-6.5,13.5-9.5,20.2-3,6.7-5.8,13.5-8.3,20.4-.7,1.7-1.3,3.4-1.9,5.2l-1.8,5.2c-1,3.5-2.3,7-3.3,10.5-2.2,7-3.8,14.2-5.8,21.6-.7-7.5-.6-15.2.7-22.7l.4-2.8c.1-.9.4-1.9.6-2.8.4-1.9.9-3.7,1.3-5.6,1.1-3.6,2.1-7.3,3.5-10.9,2.7-7.1,6-14,10-20.5,4-6.4,8.5-12.6,14.1-17.8h0Z"/>
</svg>